<svg xmlns="http://www.w3.org/2000/svg" xmlns:xlink="http://www.w3.org/1999/xlink" viewBox="0 0 300 300">
    <style>:root>svg{display:none}:root>svg:target{display:block}</style>
    <svg id="btn-next" xmlns="http://www.w3.org/2000/svg" viewBox="0 0 32 32">
       <path d="M17.6459 25.354C17.5994 25.3075 17.5625 25.2524 17.5373 25.1917C17.5122 25.131 17.4992 25.0659 17.4992 25.0002C17.4992 24.9345 17.5122 24.8695 17.5373 24.8088C17.5625 24.7481 17.5994 24.6929 17.6459 24.6465L25.7921 16.5002L4.99961 16.5002C4.867 16.5002 4.73982 16.4476 4.64605 16.3538C4.55228 16.26 4.49961 16.1328 4.49961 16.0002C4.49961 15.8676 4.55228 15.7404 4.64605 15.6467C4.73982 15.5529 4.867 15.5002 4.99961 15.5002L25.7921 15.5002L17.6459 7.35398C17.5994 7.30753 17.5626 7.25238 17.5374 7.19168C17.5123 7.13098 17.4993 7.06593 17.4993 7.00023C17.4993 6.93453 17.5123 6.86948 17.5374 6.80878C17.5626 6.74809 17.5994 6.69294 17.6459 6.64648C17.6923 6.60003 17.7475 6.56318 17.8082 6.53803C17.8689 6.51289 17.9339 6.49995 17.9996 6.49995C18.0653 6.49995 18.1304 6.51289 18.1911 6.53803C18.2518 6.56318 18.3069 6.60003 18.3534 6.64648L27.3534 15.6465C27.3998 15.6929 27.4367 15.7481 27.4619 15.8088C27.487 15.8695 27.5 15.9345 27.5 16.0002C27.5 16.0659 27.487 16.131 27.4619 16.1917C27.4367 16.2524 27.3998 16.3075 27.3534 16.354L18.3534 25.354C18.3069 25.4005 18.2518 25.4373 18.1911 25.4625C18.1304 25.4877 18.0653 25.5006 17.9996 25.5006C17.9339 25.5006 17.8688 25.4877 17.8081 25.4625C17.7474 25.4373 17.6923 25.4005 17.6459 25.354Z"/>
    </svg>
    <svg id="btn-prev" xmlns="http://www.w3.org/2000/svg" viewBox="0 0 32 32">
       <path d="M14.3541 6.64602C14.4006 6.69245 14.4375 6.7476 14.4627 6.8083C14.4878 6.869 14.5008 6.93406 14.5008 6.99977C14.5008 7.06548 14.4878 7.13054 14.4627 7.19124C14.4375 7.25194 14.4006 7.30708 14.3541 7.35352L6.20789 15.4998L27.0004 15.4998C27.133 15.4998 27.2602 15.5524 27.3539 15.6462C27.4477 15.74 27.5004 15.8672 27.5004 15.9998C27.5004 16.1324 27.4477 16.2596 27.3539 16.3533C27.2602 16.4471 27.133 16.4998 27.0004 16.4998L6.20789 16.4998L14.3541 24.646C14.4006 24.6925 14.4374 24.7476 14.4626 24.8083C14.4877 24.869 14.5007 24.9341 14.5007 24.9998C14.5007 25.0655 14.4877 25.1305 14.4626 25.1912C14.4374 25.2519 14.4006 25.3071 14.3541 25.3535C14.3077 25.4 14.2525 25.4368 14.1918 25.462C14.1311 25.4871 14.0661 25.5 14.0004 25.5C13.9347 25.5 13.8696 25.4871 13.8089 25.462C13.7482 25.4368 13.6931 25.4 13.6466 25.3535L4.64664 16.3535C4.60015 16.3071 4.56328 16.2519 4.53811 16.1912C4.51295 16.1305 4.5 16.0655 4.5 15.9998C4.5 15.9341 4.51295 15.869 4.53811 15.8083C4.56328 15.7476 4.60015 15.6925 4.64664 15.646L13.6466 6.64602C13.6931 6.59953 13.7482 6.56265 13.8089 6.53749C13.8696 6.51233 13.9347 6.49938 14.0004 6.49938C14.0661 6.49938 14.1312 6.51233 14.1919 6.53749C14.2526 6.56265 14.3077 6.59953 14.3541 6.64602Z" />
    </svg>
    <svg id="search" xmlns="http://www.w3.org/2000/svg" viewBox="0 0 24 25">
        <path d="M10.2499 2.5C11.8178 2.49983 13.3534 2.94648 14.6766 3.78763C15.9999 4.62878 17.056 5.8296 17.7213 7.24941C18.3866 8.66922 18.6335 10.2492 18.4331 11.8043C18.2328 13.3594 17.5934 14.8252 16.5899 16.03L22.2799 21.72C22.3786 21.8117 22.4508 21.9283 22.4888 22.0575C22.5268 22.1868 22.5293 22.3239 22.4959 22.4544C22.4625 22.5849 22.3946 22.704 22.2992 22.7992C22.2038 22.8943 22.0845 22.962 21.9539 22.995C21.8235 23.0284 21.6865 23.0261 21.5574 22.9883C21.4282 22.9504 21.3116 22.8785 21.2199 22.78L15.5299 17.09C14.5117 17.9378 13.3044 18.5278 12.0099 18.8103C10.7155 19.0928 9.37204 19.0594 8.09325 18.7128C6.81446 18.3663 5.63794 17.7169 4.66321 16.8195C3.68847 15.9222 2.9442 14.8033 2.49334 13.5574C2.04249 12.3116 1.89831 10.9755 2.07301 9.66216C2.24771 8.34883 2.73615 7.09689 3.49701 6.01224C4.25787 4.92759 5.26876 4.04214 6.44419 3.43079C7.61961 2.81944 8.92499 2.50017 10.2499 2.5ZM3.49989 10.75C3.49989 11.6364 3.67448 12.5142 4.0137 13.3331C4.35292 14.1521 4.85012 14.8962 5.47692 15.523C6.10371 16.1498 6.84783 16.647 7.66678 16.9862C8.48572 17.3254 9.36347 17.5 10.2499 17.5C11.1363 17.5 12.0141 17.3254 12.833 16.9862C13.652 16.647 14.3961 16.1498 15.0229 15.523C15.6497 14.8962 16.1469 14.1521 16.4861 13.3331C16.8253 12.5142 16.9999 11.6364 16.9999 10.75C16.9999 8.95979 16.2887 7.2429 15.0229 5.97703C13.757 4.71116 12.0401 4 10.2499 4C8.45968 4 6.74279 4.71116 5.47692 5.97703C4.21105 7.2429 3.49989 8.95979 3.49989 10.75Z"/>
    </svg>
    <svg id="telegram" xmlns="http://www.w3.org/2000/svg" viewBox="0 0 32 32">
        <path d="M32 16C32 20.2435 30.3143 24.3131 27.3137 27.3137C24.3131 30.3143 20.2435 32 16 32C11.7565 32 7.68687 30.3143 4.68629 27.3137C1.68571 24.3131 0 20.2435 0 16C0 11.7565 1.68571 7.68687 4.68629 4.68629C7.68687 1.68571 11.7565 0 16 0C20.2435 0 24.3131 1.68571 27.3137 4.68629C30.3143 7.68687 32 11.7565 32 16ZM16.574 11.812C15.018 12.46 11.906 13.8 7.242 15.832C6.486 16.132 6.088 16.428 6.052 16.716C5.992 17.202 6.602 17.394 7.432 17.656L7.782 17.766C8.598 18.032 9.698 18.342 10.268 18.354C10.788 18.366 11.366 18.154 12.004 17.714C16.362 14.772 18.612 13.286 18.752 13.254C18.852 13.23 18.992 13.202 19.084 13.286C19.178 13.368 19.168 13.526 19.158 13.568C19.098 13.826 16.704 16.05 15.466 17.202C15.08 17.562 14.806 17.816 14.75 17.874C14.6267 18 14.5013 18.124 14.374 18.246C13.614 18.978 13.046 19.526 14.404 20.422C15.058 20.854 15.582 21.208 16.104 21.564C16.672 21.952 17.24 22.338 17.976 22.822C18.162 22.942 18.342 23.072 18.516 23.196C19.178 23.668 19.776 24.092 20.51 24.024C20.938 23.984 21.38 23.584 21.604 22.384C22.134 19.55 23.176 13.412 23.416 10.882C23.4306 10.6717 23.4219 10.4604 23.39 10.252C23.3712 10.0838 23.2898 9.92892 23.162 9.818C22.98 9.69238 22.7631 9.6273 22.542 9.632C21.942 9.642 21.016 9.964 16.574 11.812Z"/>
    </svg>
    <svg id="vk" xmlns="http://www.w3.org/2000/svg" viewBox="0 0 32 32">
       <path d="M16.0001 0.639893C7.51694 0.639893 0.640137 7.51669 0.640137 15.9999C0.640137 24.4831 7.51694 31.3599 16.0001 31.3599C24.4833 31.3599 31.3601 24.4831 31.3601 15.9999C31.3601 7.51669 24.4833 0.639893 16.0001 0.639893ZM21.9073 17.9695C21.9073 17.9695 23.2657 19.3103 23.6001 19.9327C23.6097 19.9455 23.6145 19.9583 23.6177 19.9647C23.7537 20.1935 23.7857 20.3711 23.7185 20.5039C23.6065 20.7247 23.2225 20.8335 23.0913 20.8431H20.6913C20.5249 20.8431 20.1761 20.7999 19.7537 20.5087C19.4289 20.2815 19.1089 19.9087 18.7969 19.5455C18.3313 19.0047 17.9281 18.5375 17.5217 18.5375C17.4701 18.5374 17.4188 18.5455 17.3697 18.5615C17.0625 18.6607 16.6689 19.0991 16.6689 20.2671C16.6689 20.6319 16.3809 20.8415 16.1777 20.8415H15.0785C14.7041 20.8415 12.7537 20.7103 11.0257 18.8879C8.91054 16.6559 7.00654 12.1791 6.99054 12.1375C6.87054 11.8479 7.11854 11.6927 7.38894 11.6927H9.81294C10.1361 11.6927 10.2417 11.8895 10.3153 12.0639C10.4017 12.2671 10.7185 13.0751 11.2385 13.9839C12.0817 15.4655 12.5985 16.0671 13.0129 16.0671C13.0906 16.0662 13.167 16.0464 13.2353 16.0095C13.7761 15.7087 13.6753 13.7807 13.6513 13.3807C13.6513 13.3055 13.6497 12.5183 13.3729 12.1407C13.1745 11.8671 12.8369 11.7631 12.6321 11.7247C12.715 11.6103 12.8242 11.5176 12.9505 11.4543C13.3217 11.2687 13.9905 11.2415 14.6545 11.2415H15.0241C15.7441 11.2511 15.9297 11.2975 16.1905 11.3631C16.7185 11.4895 16.7297 11.8303 16.6833 12.9967C16.6689 13.3279 16.6545 13.7023 16.6545 14.1439C16.6545 14.2399 16.6497 14.3423 16.6497 14.4511C16.6337 15.0447 16.6145 15.7183 17.0337 15.9951C17.0884 16.0294 17.1516 16.0477 17.2161 16.0479C17.3617 16.0479 17.8001 16.0479 18.9873 14.0111C19.3535 13.3555 19.6716 12.6743 19.9393 11.9727C19.9633 11.9311 20.0337 11.8031 20.1169 11.7535C20.1783 11.7222 20.2464 11.7063 20.3153 11.7071H23.1649C23.4753 11.7071 23.6881 11.7535 23.7281 11.8735C23.7985 12.0639 23.7153 12.6447 22.4145 14.4063L21.8337 15.1727C20.6545 16.7183 20.6545 16.7967 21.9073 17.9695Z"/>
    </svg>
    <svg id="y-dzen" xmlns="http://www.w3.org/2000/svg" viewBox="0 0 32 32">
       <path fill-rule="evenodd" clip-rule="evenodd" d="M16 0C7.16344 0 0 7.16344 0 16C0 24.8366 7.16344 32 16 32C24.8366 32 32 24.8366 32 16C32 7.16344 24.8366 0 16 0ZM16.0857 24C16.1943 20.4571 16.2857 18.84 17.5429 17.5429C18.84 16.2857 20.4571 16.2 24 16.0857C24 19.28 23.9886 21.6686 22.8457 22.8457C21.6686 23.9886 19.3886 24 16.0857 24ZM9.15429 22.8457C8.01143 21.6686 8 19.28 8 16.0857C11.5429 16.1943 13.16 16.2857 14.4571 17.5429C15.7143 18.84 15.8 20.4571 15.9143 24C12.6114 24 10.3314 23.9886 9.15429 22.8457ZM9.15429 9.15429C10.3314 8.01143 12.6171 8 15.9143 8C15.8057 11.5429 15.7143 13.16 14.4571 14.4571C13.16 15.7143 11.5429 15.8 8 15.9143C8 12.72 8.01143 10.3314 9.15429 9.15429ZM16.0857 8C16.1943 11.5429 16.2857 13.16 17.5429 14.4571C18.84 15.7143 20.4571 15.8 24 15.9143C24 12.72 23.9886 10.3314 22.8457 9.15429C21.6686 8.01143 19.3886 8 16.0857 8Z"/>
    </svg>
    <svg id="address" xmlns="http://www.w3.org/2000/svg" viewBox="0 0 32 32">
       <path d="M15.9999 10.5885C15.3473 10.5885 14.7095 10.783 14.1669 11.1474C13.6244 11.5117 13.2015 12.0296 12.9518 12.6356C12.7021 13.2415 12.6367 13.9082 12.764 14.5515C12.8913 15.1947 13.2056 15.7856 13.667 16.2493C14.1284 16.7131 14.7162 17.0289 15.3562 17.1568C15.9962 17.2848 16.6596 17.2191 17.2624 16.9681C17.8653 16.7171 18.3806 16.2921 18.7431 15.7468C19.1056 15.2015 19.2991 14.5604 19.2991 13.9045C19.2991 13.0251 18.9515 12.1816 18.3328 11.5598C17.714 10.9379 16.8749 10.5885 15.9999 10.5885ZM15.9999 16.1734C15.5534 16.1734 15.117 16.0403 14.7457 15.791C14.3745 15.5417 14.0852 15.1874 13.9143 14.7728C13.7435 14.3582 13.6988 13.902 13.7859 13.4619C13.873 13.0218 14.088 12.6175 14.4037 12.3002C14.7194 11.9829 15.1216 11.7668 15.5595 11.6793C15.9974 11.5917 16.4512 11.6367 16.8637 11.8084C17.2762 11.9801 17.6288 12.2709 17.8768 12.644C18.1248 13.0171 18.2572 13.4558 18.2572 13.9045C18.2572 14.5063 18.0194 15.0834 17.5961 15.5089C17.1727 15.9343 16.5986 16.1734 15.9999 16.1734ZM15.9999 6.3999C14.0203 6.40221 12.1225 7.19362 10.7227 8.60051C9.3229 10.0074 8.5355 11.9149 8.5332 13.9045C8.5332 16.6018 9.77823 19.4667 12.1337 22.1893C13.1968 23.4242 14.3934 24.5364 15.7012 25.5053C15.7887 25.5669 15.893 25.5999 15.9999 25.5999C16.1067 25.5999 16.211 25.5669 16.2985 25.5053C17.6064 24.5364 18.8029 23.4242 19.866 22.1893C22.2215 19.4667 23.4665 16.6045 23.4665 13.9045C23.4642 11.9149 22.6768 10.0074 21.2771 8.60051C19.8773 7.19362 17.9794 6.40221 15.9999 6.3999ZM15.9999 24.4206C14.6975 23.4101 9.57506 19.1072 9.57506 13.9045C9.57506 12.1919 10.252 10.5494 11.4568 9.33841C12.6617 8.1274 14.2959 7.44706 15.9999 7.44706C17.7038 7.44706 19.338 8.1274 20.5429 9.33841C21.7478 10.5494 22.4247 12.1919 22.4247 13.9045C22.4247 19.1072 17.3022 23.4101 15.9999 24.4206Z"/>
    </svg>
    <svg id="mail" xmlns="http://www.w3.org/2000/svg" viewBox="0 0 32 32">
       <path d="M8.99806 22.4001C8.56191 22.4001 8.19782 22.2593 7.90579 21.9777C7.61313 21.6955 7.4668 21.3441 7.4668 20.9235V11.0767C7.4668 10.6561 7.61313 10.305 7.90579 10.0234C8.19782 9.7412 8.56191 9.6001 8.99806 9.6001H23.0022C23.4384 9.6001 23.8024 9.7412 24.0945 10.0234C24.3871 10.305 24.5335 10.6561 24.5335 11.0767V20.9235C24.5335 21.3441 24.3874 21.6952 24.0954 21.9768C23.8028 22.259 23.4384 22.4001 23.0022 22.4001H8.99806ZM16.0001 16.1052L8.41494 11.3235V20.9235C8.41494 21.0875 8.46962 21.2222 8.57897 21.3276C8.68833 21.4331 8.82802 21.4858 8.99806 21.4858H23.0022C23.1722 21.4858 23.3119 21.4331 23.4213 21.3276C23.5306 21.2222 23.5853 21.0875 23.5853 20.9235V11.3235L16.0001 16.1052ZM16.0001 15.0858L23.2933 10.5144H8.70697L16.0001 15.0858ZM8.41494 11.3235V10.5144V20.9235C8.41494 21.0875 8.46962 21.2222 8.57897 21.3276C8.68833 21.4331 8.82802 21.4858 8.99806 21.4858H8.41494V11.3235Z"/>
    </svg>
    <svg id="phone" xmlns="http://www.w3.org/2000/svg" viewBox="0 0 32 32" fill="none">
       <path d="M24.0065 11.6906C23.2458 14.6587 21.7013 17.3678 19.5347 19.5344C17.368 21.701 14.6589 23.2455 11.6908 24.0063C9.40706 24.5876 7.4668 22.6239 7.4668 20.2666V19.1999C7.4668 18.6111 7.94573 18.1386 8.53133 18.0799C9.50255 17.9842 10.4559 17.7548 11.3644 17.3983L12.9857 19.0196C15.6256 17.7542 17.7544 15.6254 19.0199 12.9855L17.3985 11.3642C17.7554 10.4557 17.9851 9.50236 18.0812 8.53109C18.1388 7.94442 18.6113 7.46655 19.2001 7.46655H20.2668C22.6241 7.46655 24.5879 9.40682 24.0065 11.6906Z" stroke="#ffffff" stroke-linecap="round" stroke-linejoin="round"/>
    </svg>
    <svg id="omni" xmlns="http://www.w3.org/2000/svg" viewBox="0 0 98 27" fill="none">
        <g clip-path="url(#clip0_428_3950)">
            <path fill-rule="evenodd" clip-rule="evenodd" d="M5.81475 2.19238H8.72267V5.10027H5.81475V2.19238ZM5.81475 7.6869V10.5927H2.90895V16.4085H5.81475V18.9935V21.9011H8.72267V18.9935H22.9403V21.9004H17.4477V24.8083H22.9403V21.9011H25.8483V16.4085H28.754V10.5927H25.8483H25.8469V7.6869H22.9424V5.10134H20.0346V7.6869H11.6284V5.10134H8.72057V7.6869H5.81475ZM22.9403 13.4985V10.5948H20.03V13.4985H22.9403ZM11.6295 10.5948V13.4985H8.72267V10.5948H11.6295ZM2.90789 13.4985H0V21.8991H2.90789V13.4985ZM14.2167 24.8083V21.9004H8.72396V24.8083H14.2167ZM25.8483 2.19238H22.9403V5.10027H25.8483V2.19238ZM31.6661 13.4985H28.7583V21.8991H31.6661V13.4985Z" fill="#FFD600"/>
        </g>
        <path d="M55.1206 13.3636C55.1206 14.9744 54.8297 16.3665 54.248 17.5398C53.6664 18.7131 52.8684 19.6179 51.8542 20.2543C50.84 20.8906 49.6816 21.2088 48.3791 21.2088C47.0765 21.2088 45.9181 20.8906 44.9039 20.2543C43.8897 19.6179 43.0918 18.7131 42.5101 17.5398C41.9284 16.3665 41.6376 14.9744 41.6376 13.3636C41.6376 11.7528 41.9284 10.3608 42.5101 9.1875C43.0918 8.0142 43.8897 7.10937 44.9039 6.47301C45.9181 5.83665 47.0765 5.51847 48.3791 5.51847C49.6816 5.51847 50.84 5.83665 51.8542 6.47301C52.8684 7.10937 53.6664 8.0142 54.248 9.1875C54.8297 10.3608 55.1206 11.7528 55.1206 13.3636ZM53.3308 13.3636C53.3308 12.0412 53.1096 10.9251 52.6671 10.0153C52.2296 9.10547 51.6355 8.4169 50.8848 7.94957C50.139 7.48224 49.3038 7.24858 48.3791 7.24858C47.4544 7.24858 46.6167 7.48224 45.8659 7.94957C45.1202 8.4169 44.5261 9.10547 44.0836 10.0153C43.6461 10.9251 43.4274 12.0412 43.4274 13.3636C43.4274 14.6861 43.6461 15.8022 44.0836 16.712C44.5261 17.6218 45.1202 18.3104 45.8659 18.7777C46.6167 19.245 47.4544 19.4787 48.3791 19.4787C49.3038 19.4787 50.139 19.245 50.8848 18.7777C51.6355 18.3104 52.2296 17.6218 52.6671 16.712C53.1096 15.8022 53.3308 14.6861 53.3308 13.3636ZM58.2303 5.72727H60.4377L65.628 18.4048H65.807L70.9973 5.72727H73.2047V21H71.4746V9.39631H71.3255L66.5527 21H64.8823L60.1096 9.39631H59.9604V21H58.2303V5.72727ZM89.0237 5.72727V21H87.2339L78.9115 9.00852H78.7623V21H76.9129V5.72727H78.7027L87.055 17.7486H87.2041V5.72727H89.0237ZM94.5739 5.72727V21H92.7244V5.72727H94.5739Z" fill="#FFD600"/>
        <defs>
            <clipPath id="clip0_428_3950">
                <rect width="32.3077" height="22.6154" fill="white" transform="translate(0 2.19238)"/>
            </clipPath>
        </defs>
    </svg>
    <svg id="del" xmlns="http://www.w3.org/2000/svg" viewBox="0 0 48 54">
        <path d="M45.3333 8.32812C46.0406 8.32812 46.7189 8.60908 47.219 9.10917C47.7191 9.60927 48 10.2875 48 10.9948C48 11.702 47.7191 12.3803 47.219 12.8804C46.7189 13.3805 46.0406 13.6615 45.3333 13.6615H42.6667L42.6587 13.8508L40.1707 48.7068C40.0749 50.0523 39.4728 51.3116 38.4856 52.231C37.4985 53.1503 36.1996 53.6615 34.8507 53.6615H13.1467C11.7977 53.6615 10.4988 53.1503 9.51169 52.231C8.52454 51.3116 7.92244 50.0523 7.82667 48.7068L5.33867 13.8535C5.33462 13.7895 5.33284 13.7255 5.33333 13.6615H2.66667C1.95942 13.6615 1.28115 13.3805 0.781048 12.8804C0.280951 12.3803 0 11.702 0 10.9948C0 10.2875 0.280951 9.60927 0.781048 9.10917C1.28115 8.60908 1.95942 8.32812 2.66667 8.32812H45.3333ZM37.3253 13.6615H10.6747L13.1493 48.3281H34.8507L37.3253 13.6615ZM29.3333 0.328125C30.0406 0.328125 30.7189 0.609076 31.219 1.10917C31.719 1.60927 32 2.28755 32 2.99479C32 3.70204 31.719 4.38031 31.219 4.88041C30.7189 5.38051 30.0406 5.66146 29.3333 5.66146H18.6667C17.9594 5.66146 17.2811 5.38051 16.781 4.88041C16.281 4.38031 16 3.70204 16 2.99479C16 2.28755 16.281 1.60927 16.781 1.10917C17.2811 0.609076 17.9594 0.328125 18.6667 0.328125H29.3333Z"/>
    </svg>
</svg>
