<svg xmlns="http://www.w3.org/2000/svg" viewBox="0 0 120 120">
    <path d="M42.9641 45.1368C45.364 45.1368 47.71 44.4251 49.7055 43.0918C51.7009 41.7585 53.2562 39.8634 54.1746 37.6462C55.093 35.429 55.3332 32.9893 54.8651 30.6355C54.3969 28.2817 53.2412 26.1196 51.5442 24.4226C49.8472 22.7257 47.6852 21.57 45.3314 21.1018C42.9776 20.6336 40.5378 20.8739 38.3206 21.7923C36.1034 22.7107 34.2083 24.266 32.875 26.2614C31.5417 28.2568 30.8301 30.6028 30.8301 33.0027C30.8337 36.2198 32.1132 39.304 34.388 41.5788C36.6628 43.8536 39.7471 45.1332 42.9641 45.1368ZM42.9641 23.2124C44.9005 23.2124 46.7933 23.7866 48.4033 24.8624C50.0133 25.9381 51.2682 27.4671 52.0092 29.2561C52.7502 31.045 52.9441 33.0135 52.5664 34.9126C52.1886 36.8118 51.2562 38.5562 49.887 39.9254C48.5178 41.2946 46.7734 42.2271 44.8743 42.6049C42.9752 42.9827 41.0067 42.7888 39.2177 42.0479C37.4288 41.3069 35.8997 40.0521 34.8239 38.4421C33.7481 36.8321 33.1739 34.9393 33.1738 33.003C33.1767 30.4073 34.2091 27.9187 36.0446 26.0833C37.88 24.2479 40.3685 23.2154 42.9641 23.2124Z" fill="#00359C"/>
    <path d="M112.885 63.2372C99.2649 60.6542 87.0837 66.3788 78.4866 72.5217C79.5032 69.3725 80.4456 66.1997 81.3131 63.0061C82.1582 62.6155 82.8967 62.0269 83.466 61.2903C84.0354 60.5537 84.4188 59.6907 84.5838 58.7745C91.0995 57.2909 93.3923 54.4939 94.0931 53.3145C99.0928 51.372 105.36 46.7281 107.554 35.6384L108.805 29.3159C108.91 28.796 108.896 28.259 108.764 27.7454C108.632 27.2317 108.385 26.7547 108.042 26.3502C107.698 25.9457 107.268 25.6243 106.783 25.4101C106.298 25.1959 105.77 25.0945 105.24 25.1135C104.918 18.1135 100.533 16.1203 96.8273 18.5993C96.4422 18.2108 95.9835 17.9029 95.478 17.6935C94.9725 17.4841 94.4305 17.3775 93.8834 17.3799C93.0117 12.9884 88.489 11.3283 83.3276 16.0362C82.966 15.6483 82.5213 15.3474 82.0267 15.1561C81.5322 14.9648 81.0008 14.888 80.4723 14.9315C79.9439 14.975 79.4321 15.1377 78.9756 15.4073C78.519 15.677 78.1294 16.0465 77.8362 16.4883L74.25 21.8433C71.9869 25.2228 70.6819 28.3842 70.042 31.2837C69.7751 27.034 68.5117 22.9067 66.3539 19.2358C64.1962 15.5648 61.2048 12.4533 57.6216 10.1527C54.0384 7.85222 49.9641 6.42735 45.7282 5.99335C41.4922 5.55936 37.2136 6.12843 33.2383 7.65455C29.2631 9.18067 25.7029 11.621 22.8456 14.7781C19.9883 17.9352 17.9142 21.7205 16.791 25.8279C15.6678 29.9352 15.5271 34.2492 16.3803 38.421C17.2334 42.5927 19.0565 46.5051 21.702 49.8417C17.2367 53.16 13.6087 57.4759 11.1073 62.4451C8.60593 67.4143 7.30043 72.8992 7.29492 78.4625C7.29492 101.427 29.0313 118.915 51.9028 112.992C56.6384 115.042 59.407 110.581 60.0563 109.76C64.4021 107.383 68.2063 104.128 71.2277 100.202C74.2491 96.2765 76.4217 91.7658 77.6077 86.9562C94.613 70.5038 106.221 67.8757 113.052 65.495C113.295 65.4094 113.503 65.2463 113.644 65.0307C113.785 64.8151 113.852 64.5591 113.833 64.3023C113.814 64.0454 113.711 63.8019 113.539 63.6094C113.368 63.4169 113.138 63.2861 112.885 63.2372ZM106.506 28.861L105.255 35.1837C103.23 45.4212 97.4754 49.5586 92.9925 51.2267C92.0546 51.3112 91.1129 51.3456 90.1713 51.3298C90.9944 50.604 91.6322 49.6921 92.0318 48.6701C93.1676 45.754 94.5391 42.015 95.7246 38.1732C100.233 33.6736 104.152 28.3057 104.319 28.076C104.335 28.0545 104.35 28.0327 104.364 28.0102C104.509 27.7775 104.731 27.6033 104.992 27.5177C105.253 27.4321 105.535 27.4407 105.79 27.542C106.045 27.6432 106.256 27.8307 106.387 28.0717C106.518 28.3128 106.56 28.5921 106.506 28.861ZM102.919 26.0982C102.724 26.2872 102.551 26.4975 102.404 26.7251C102.17 27.0439 99.9677 30.0263 97.1027 33.2728C97.2909 32.5205 97.4653 31.7757 97.6214 31.0446C98.6229 26.3543 98.7534 22.9034 98.007 20.6304C100.407 18.9429 102.933 20.2416 102.919 26.0982ZM89.8479 47.8193C89.2059 49.4677 87.6335 50.615 85.6404 50.892C83.8381 50.5479 81.7287 49.9575 78.9938 48.1657C77.7497 46.5502 77.4338 44.6229 78.157 42.9767C86.3578 24.312 92.0168 18.7976 94.5813 19.8586C97.1442 20.9203 97.2469 28.8235 89.8479 47.8193ZM91.6132 17.982C89.4783 19.0613 87.1303 21.5937 84.522 25.6186C84.053 26.3448 83.5981 27.0799 83.1574 27.8236C83.4907 23.3682 84.1327 19.5422 84.1924 19.1928C84.2505 18.9242 84.2777 18.65 84.2738 18.3753C88.3969 14.2308 91.1077 15.0846 91.613 17.982H91.6132ZM76.1974 23.1476L79.7836 17.7924C79.9354 17.5638 80.1627 17.3958 80.4258 17.3177C80.6888 17.2396 80.9709 17.2564 81.2229 17.365C81.4748 17.4737 81.6806 17.6674 81.8044 17.9123C81.9282 18.1572 81.962 18.4377 81.9 18.705C81.8953 18.7247 81.8911 18.7449 81.8876 18.7646C81.8365 19.0575 80.6524 25.9193 80.6166 32.3935C78.8222 35.8205 77.2235 39.2742 76.0111 42.034C75.5517 43.0907 75.3646 44.2457 75.4669 45.3933C74.5786 44.5725 73.9842 43.9219 73.7731 43.6835C71.5594 39.2175 70.2241 32.067 76.1972 23.1476H76.1974ZM73.5497 60.0042C73.5403 60.0314 73.5302 60.0582 73.5206 60.0853C71.112 56.1034 67.9556 52.6251 64.2255 49.8422C66.9915 46.354 68.8559 42.2383 69.6539 37.8586C69.9005 40.1301 70.5303 42.3434 71.5165 44.4045C71.1251 45.7233 70.7534 49.0512 74.1338 54.4416C73.5718 55.2428 73.2233 56.174 73.1211 57.1473C73.019 58.1206 73.1663 59.1038 73.5497 60.0042ZM9.63867 78.4625C9.64484 73.0622 10.9616 67.7442 13.4759 62.9649C15.9903 58.1857 19.627 54.0882 24.0738 51.0242C24.2097 50.9304 24.3242 50.8089 24.4098 50.6678C24.4954 50.5266 24.5503 50.369 24.5708 50.2052C24.5912 50.0414 24.5768 49.8751 24.5286 49.7172C24.4803 49.5593 24.3992 49.4134 24.2906 49.2891C21.1595 45.7033 19.1271 41.2918 18.4362 36.5818C17.7452 31.8717 18.4251 27.0624 20.3944 22.7284C22.3637 18.3944 25.5392 14.719 29.5415 12.1415C33.5438 9.56404 38.2036 8.1934 42.964 8.1934C47.7244 8.1934 52.3842 9.56404 56.3865 12.1415C60.3888 14.719 63.5643 18.3944 65.5336 22.7284C67.5029 27.0624 68.1827 31.8717 67.4918 36.5818C66.8009 41.2918 64.7684 45.7033 61.6373 49.2891C61.5293 49.4137 61.4486 49.5596 61.4006 49.7174C61.3527 49.8752 61.3384 50.0414 61.3588 50.205C61.3793 50.3687 61.4339 50.5262 61.5192 50.6674C61.6045 50.8086 61.7185 50.9302 61.8539 51.0244C66.3017 54.101 69.9428 58.2039 72.4692 62.9857C71.5825 65.3805 70.6455 67.7562 69.6586 70.1114C68.3278 65.1352 66.1554 60.589 63.2845 56.8092C59.4005 51.6959 54.371 48.2349 48.7392 46.8005C48.5112 46.7429 48.2712 46.7553 48.0502 46.8359C47.8293 46.9165 47.6377 47.0616 47.5003 47.2525C47.363 47.4433 47.2861 47.6711 47.2798 47.9061C47.2735 48.1412 47.338 48.3728 47.4649 48.5707C50.1183 52.6597 52.4815 56.9298 54.5372 61.3496C51.2889 59.1514 47.4822 57.9231 43.5618 57.8079C39.6413 57.6928 35.7691 58.6957 32.3974 60.6994C29.0257 62.7031 26.2938 65.6249 24.5209 69.1234C22.748 72.622 22.0073 76.5528 22.3853 80.4567C22.7633 84.3605 24.2444 88.0762 26.6555 91.1697C29.0667 94.2631 32.3084 96.6065 36.0018 97.9262C39.6953 99.2458 43.688 99.4872 47.5135 98.622C51.339 97.7569 54.8394 95.821 57.6056 93.0406C53.0625 99.9031 49.8366 103.076 49.5258 103.443C47.2955 106.082 47.7663 109.123 49.451 111.152C28.5502 115.289 9.63867 99.1329 9.63867 78.4625ZM60.6792 83.1586C59.6375 87.109 57.3068 90.5985 54.0568 93.074C50.8069 95.5495 46.8235 96.8692 42.7383 96.824C38.6532 96.7787 34.7001 95.371 31.5057 92.8242C28.3113 90.2773 26.0586 86.737 25.1046 82.7645C24.1506 78.7921 24.5501 74.6148 26.2395 70.8951C27.929 67.1754 30.8118 64.1261 34.4309 62.2307C38.05 60.3353 42.1983 59.7022 46.218 60.4319C50.2377 61.1616 53.8988 63.2123 56.6208 66.2588C59.4302 73.5188 60.439 79.2874 60.6933 83.1624L60.6792 83.1586ZM63.9476 104.336C65.5304 101.918 67.071 99.2971 68.5695 96.4723C70.4437 94.3439 72.2599 92.3707 74.0182 90.5527C71.9116 95.9418 68.4414 100.691 63.9476 104.336ZM66.7184 95.0281C66.3788 95.4148 62.7837 102.949 57.0183 109.775C53.8352 113.541 48.1235 108.734 51.3098 104.963C52.1927 103.961 56.5193 99.6373 62.3409 89.9194C63.2843 88.5019 63.4683 83.2526 62.1424 76.6992C60.9366 70.74 58.0502 61.4452 51.1608 50.0637C61.1749 54.1777 66.4896 64.8781 68.1481 74.097C68.1931 74.3431 68.3157 74.5683 68.4979 74.7398C68.6801 74.9112 68.9124 75.02 69.1607 75.0501C69.4091 75.0802 69.6606 75.0301 69.8785 74.9071C70.0964 74.7841 70.2692 74.5947 70.3718 74.3665C72.3464 69.935 74.2139 65.2102 75.9218 60.3235C75.9754 60.1702 75.9966 60.0075 75.9839 59.8456C75.9712 59.6837 75.925 59.5262 75.8482 59.3832C75.4999 58.7369 75.3676 57.9962 75.4708 57.2693C75.5739 56.5425 75.907 55.8678 76.4213 55.3439C76.6093 55.1517 76.7255 54.9007 76.7505 54.633C76.7754 54.3652 76.7075 54.0971 76.5581 53.8735C74.4534 50.7221 73.8014 48.4132 73.6608 46.9224C80.0217 52.9219 85.7419 53.697 90.6047 53.6806C89.3257 54.6865 87.0858 55.9001 83.2737 56.6574C83.01 56.7099 82.7723 56.8514 82.6006 57.0583C82.4288 57.2651 82.3334 57.5248 82.3303 57.7936C82.3207 58.5107 82.0878 59.2069 81.6642 59.7855C81.2405 60.364 80.6471 60.7962 79.9664 61.0219C79.7824 61.0829 79.6164 61.1886 79.4832 61.3295C79.3501 61.4704 79.254 61.6421 79.2035 61.8293C77.9285 66.5611 76.5363 71.112 75.0659 75.3556C74.9836 75.5955 74.9814 75.8555 75.0594 76.0968C75.1374 76.3381 75.2915 76.5476 75.4985 76.6939C75.7056 76.8402 75.9545 76.9156 76.208 76.9085C76.4615 76.9015 76.7059 76.8125 76.9045 76.655C84.1556 70.8647 94.983 64.5415 107.31 64.9674C98.2591 68.1347 85.256 73.9458 66.7184 95.0278V95.0281Z" fill="#00359C"/>
</svg>