<svg xmlns="http://www.w3.org/2000/svg" viewBox="0 0 120 120">
    <path d="M54.5137 107.734H106.901C109.783 107.734 112.12 105.398 112.12 102.516V82.2877" stroke="#00359C" stroke-width="2.8" stroke-miterlimit="10" stroke-linecap="round" stroke-linejoin="round"/>
    <path d="M48.963 1.759H34.7391C31.8572 1.759 29.521 4.09525 29.521 6.97711V41.5229" stroke="#00359C" stroke-width="2.8" stroke-miterlimit="10" stroke-linecap="round" stroke-linejoin="round"/>
    <path d="M112.12 74.2769V6.97698C112.12 4.09511 109.783 1.75887 106.901 1.75887H56.9736" stroke="#00359C" stroke-width="2.8" stroke-miterlimit="10" stroke-linecap="round" stroke-linejoin="round"/>
    <path d="M102 31.6401H39.6416V14.3625H102V31.6401Z" stroke="#00359C" stroke-width="2.8" stroke-miterlimit="10" stroke-linecap="round" stroke-linejoin="round"/>
    <path d="M57.313 44.581C57.6082 44.0724 58.0318 43.6503 58.5415 43.357C59.0512 43.0636 59.629 42.9094 60.2171 42.9097H64.5695C66.4238 42.9097 67.9271 44.413 67.9271 46.2674C67.9271 48.1217 66.4238 49.625 64.5695 49.625H61.6234" stroke="#00359C" stroke-width="2.8" stroke-miterlimit="10" stroke-linecap="round" stroke-linejoin="round"/>
    <path d="M81.4238 49.625H77.0715C75.2171 49.625 73.7139 48.1217 73.7139 46.2674C73.7139 44.413 75.2171 42.9097 77.0715 42.9097H81.4238C83.2782 42.9097 84.7815 44.413 84.7815 46.2674C84.7815 48.1217 83.2782 49.625 81.4238 49.625Z" stroke="#00359C" stroke-width="2.8" stroke-miterlimit="10" stroke-linecap="round" stroke-linejoin="round"/>
    <path d="M98.2774 49.625H93.925C92.0707 49.625 90.5674 48.1217 90.5674 46.2674C90.5674 44.413 92.0707 42.9097 93.925 42.9097H98.2774C100.132 42.9097 101.635 44.413 101.635 46.2674C101.635 48.1217 100.132 49.625 98.2774 49.625Z" stroke="#00359C" stroke-width="2.8" stroke-miterlimit="10" stroke-linecap="round" stroke-linejoin="round"/>
    <path d="M61.155 60.002H64.5698C66.4242 60.002 67.9275 61.5053 67.9275 63.3596C67.9275 65.214 66.4242 66.7173 64.5698 66.7173H60.2175C58.3631 66.7173 56.8599 65.214 56.8599 63.3596" stroke="#00359C" stroke-width="2.8" stroke-miterlimit="10" stroke-linecap="round" stroke-linejoin="round"/>
    <path d="M81.4238 66.7173H77.0715C75.2171 66.7173 73.7139 65.214 73.7139 63.3596C73.7139 61.5053 75.2171 60.002 77.0715 60.002H81.4238C83.2782 60.002 84.7815 61.5053 84.7815 63.3596C84.7815 65.214 83.2782 66.7173 81.4238 66.7173Z" stroke="#00359C" stroke-width="2.8" stroke-miterlimit="10" stroke-linecap="round" stroke-linejoin="round"/>
    <path d="M98.2774 66.7173H93.925C92.0707 66.7173 90.5674 65.214 90.5674 63.3596C90.5674 61.5053 92.0707 60.002 93.925 60.002H98.2774C100.132 60.002 101.635 61.5053 101.635 63.3596C101.635 65.214 100.132 66.7173 98.2774 66.7173Z" stroke="#00359C" stroke-width="2.8" stroke-miterlimit="10" stroke-linecap="round" stroke-linejoin="round"/>
    <path d="M56.8594 77.0938C56.8594 75.2394 58.3627 73.7361 60.217 73.7361H64.5694C66.424 73.7361 67.9272 75.2394 67.9272 77.0938C67.9272 78.9481 66.424 80.4517 64.5694 80.4517H60.6858" stroke="#00359C" stroke-width="2.8" stroke-miterlimit="10" stroke-linecap="round" stroke-linejoin="round"/>
    <path d="M81.4238 80.4517H77.0715C75.2171 80.4517 73.7139 78.9481 73.7139 77.0938C73.7139 75.2394 75.2171 73.7361 77.0715 73.7361H81.4238C83.2782 73.7361 84.7815 75.2394 84.7815 77.0938C84.7815 78.9481 83.2782 80.4517 81.4238 80.4517Z" stroke="#00359C" stroke-width="2.8" stroke-miterlimit="10" stroke-linecap="round" stroke-linejoin="round"/>
    <path d="M98.2774 80.4517H93.925C92.0707 80.4517 90.5674 78.9481 90.5674 77.0938C90.5674 75.2394 92.0707 73.7361 93.925 73.7361H98.2774C100.132 73.7361 101.635 75.2394 101.635 77.0938C101.635 78.9481 100.132 80.4517 98.2774 80.4517Z" stroke="#00359C" stroke-width="2.8" stroke-miterlimit="10" stroke-linecap="round" stroke-linejoin="round"/>
    <path d="M61.6235 87.471H64.5696C66.424 87.471 67.9273 88.9743 67.9273 90.8286C67.9273 92.683 66.424 94.1865 64.5696 94.1865H60.686" stroke="#00359C" stroke-width="2.8" stroke-miterlimit="10" stroke-linecap="round" stroke-linejoin="round"/>
    <path d="M81.4238 94.186H77.0715C75.2171 94.186 73.7139 92.6825 73.7139 90.8282C73.7139 88.9738 75.2171 87.4705 77.0715 87.4705H81.4238C83.2782 87.4705 84.7815 88.9738 84.7815 90.8282C84.7815 92.6825 83.2782 94.186 81.4238 94.186Z" stroke="#00359C" stroke-width="2.8" stroke-miterlimit="10" stroke-linecap="round" stroke-linejoin="round"/>
    <path d="M98.2774 94.186H93.925C92.0707 94.186 90.5674 92.6825 90.5674 90.8282C90.5674 88.9738 92.0707 87.4705 93.925 87.4705H98.2774C100.132 87.4705 101.635 88.9738 101.635 90.8282C101.635 92.6825 100.132 94.186 98.2774 94.186Z" stroke="#00359C" stroke-width="2.8" stroke-miterlimit="10" stroke-linecap="round" stroke-linejoin="round"/>
    <path d="M7.87939 100.809V110.624C7.87939 114.329 15.973 117.415 26.6975 118.101" stroke="#00359C" stroke-width="2.8" stroke-miterlimit="10" stroke-linecap="round" stroke-linejoin="round"/>
    <path d="M34.708 118.157C45.9195 117.603 54.5136 114.441 54.5136 110.624V100.809" stroke="#00359C" stroke-width="2.8" stroke-miterlimit="10" stroke-linecap="round" stroke-linejoin="round"/>
    <path d="M53.1144 98.2029C54.02 99.016 54.514 99.8935 54.514 100.809C54.514 105.017 44.0745 108.428 31.1968 108.428C18.3194 108.428 7.87988 105.017 7.87988 100.809C7.87988 98.54 10.915 96.5028 15.731 95.1071" stroke="#00359C" stroke-width="2.8" stroke-miterlimit="10" stroke-linecap="round" stroke-linejoin="round"/>
    <path d="M14.5059 82.3288V92.1439C14.5059 96.3518 24.9454 99.7627 37.8228 99.7627C50.7005 99.7627 61.14 96.3518 61.14 92.1439V82.3288" stroke="#00359C" stroke-width="2.8" stroke-miterlimit="10" stroke-linecap="round" stroke-linejoin="round"/>
    <path d="M53.1978 76.6008C58.0664 77.9972 61.1398 80.0457 61.1398 82.3289C61.1398 86.5367 50.7003 89.9478 37.8228 89.9478C24.9451 89.9478 14.5059 86.5367 14.5059 82.3289C14.5059 81.4004 15.0142 80.5104 15.9451 79.6876" stroke="#00359C" stroke-width="2.8" stroke-miterlimit="10" stroke-linecap="round" stroke-linejoin="round"/>
    <path d="M7.87939 63.849V73.6642C7.87939 77.8721 18.3189 81.2832 31.1964 81.2832C44.0741 81.2832 54.5136 77.8721 54.5136 73.6642V64.6281" stroke="#00359C" stroke-width="2.8" stroke-miterlimit="10" stroke-linecap="round" stroke-linejoin="round"/>
    <path d="M54.3931 64.6283C53.1989 68.4701 43.2692 71.4683 31.1964 71.4683C18.3189 71.4683 7.87939 68.0572 7.87939 63.8492C7.87939 61.8938 10.1336 60.1107 13.8393 58.7617" stroke="#00359C" stroke-width="2.8" stroke-miterlimit="10" stroke-linecap="round" stroke-linejoin="round"/>
    <path d="M14.5059 49.1415V58.9566C14.5059 63.1646 24.9454 66.5757 37.8228 66.5757C50.7005 66.5757 61.14 63.1646 61.14 58.9566V49.1415" stroke="#00359C" stroke-width="2.8" stroke-miterlimit="10" stroke-linecap="round" stroke-linejoin="round"/>
    <path d="M61.1395 49.1419C61.1395 53.3497 50.7 56.7607 37.8226 56.7607C24.9449 56.7607 14.5054 53.3497 14.5054 49.1419C14.5054 44.934 24.9449 41.5229 37.8226 41.5229C50.7 41.5229 61.1395 44.934 61.1395 49.1419Z" stroke="#00359C" stroke-width="2.8" stroke-miterlimit="10" stroke-linecap="round" stroke-linejoin="round"/>
</svg>