 <svg xmlns="http://www.w3.org/2000/svg" viewBox="0 0 160 160" fill="none" stroke="#00359c">
    <path d="M129.991 40.616V155.119C129.991 155.792 129.724 156.437 129.248 156.913C128.773 157.389 128.127 157.656 127.455 157.656H32.5444C31.8717 157.656 31.2265 157.389 30.7508 156.913C30.2751 156.437 30.0078 155.792 30.0078 155.119V16.5049H127.455C128.127 16.5049 128.773 16.7721 129.248 17.2478C129.724 17.7235 129.991 18.3687 129.991 19.0415V29.8195M66.5577 40.3076H71.5509M66.5577 47.0277H74.6156M110.169 40.3076H115.162M110.169 47.0277H118.227M66.5577 73.4495H71.5509M66.5577 80.1697H74.6156M110.169 73.4495H115.162M110.169 80.1697H118.227M66.5577 106.592H71.5509M66.5577 113.311H74.6156M110.169 106.592H115.162M110.169 113.311H118.227M66.5577 139.733H71.5509M66.5577 146.453H74.6156" stroke-width="3" stroke-miterlimit="10" stroke-linecap="round" stroke-linejoin="round"/>
    <path d="M41.7727 132.798V128.479C41.7727 128.302 41.8074 128.128 41.875 127.965C41.9425 127.801 42.0415 127.653 42.1663 127.528C42.2912 127.404 42.4393 127.305 42.6024 127.237C42.7655 127.17 42.9403 127.135 43.1168 127.135H57.2928C57.4693 127.135 57.6441 127.17 57.8072 127.237C57.9703 127.305 58.1185 127.404 58.2433 127.528C58.3681 127.653 58.4671 127.801 58.5346 127.965C58.6022 128.128 58.6369 128.302 58.6369 128.479V145.11C58.6369 145.286 58.6022 145.461 58.5346 145.624C58.4671 145.787 58.3681 145.935 58.2433 146.06C58.1185 146.185 57.9703 146.284 57.8072 146.351C57.6441 146.419 57.4693 146.454 57.2928 146.454H43.1168C42.9403 146.454 42.7655 146.419 42.6024 146.351C42.4393 146.284 42.2912 146.185 42.1663 146.06C42.0415 145.935 41.9425 145.787 41.875 145.624C41.8074 145.461 41.7727 145.286 41.7727 145.11V143.168M110.169 139.734H115.162M110.169 146.454H118.227M57.2931 47.0281H43.1172C42.9406 47.0282 42.7658 46.9934 42.6027 46.9259C42.4397 46.8584 42.2915 46.7594 42.1666 46.6346C42.0418 46.5097 41.9428 46.3616 41.8753 46.1985C41.8078 46.0354 41.773 45.8606 41.7731 45.6841V29.0534C41.773 28.8769 41.8078 28.7021 41.8753 28.539C41.9428 28.3759 42.0418 28.2277 42.1666 28.1029C42.2915 27.9781 42.4397 27.8791 42.6027 27.8115C42.7658 27.744 42.9406 27.7093 43.1172 27.7093H57.2931C57.4696 27.7093 57.6444 27.744 57.8075 27.8115C57.9706 27.8791 58.1188 27.9781 58.2436 28.1029C58.3684 28.2277 58.4674 28.3759 58.5349 28.539C58.6025 28.7021 58.6372 28.8769 58.6372 29.0534V45.6841C58.6372 46.0405 58.4956 46.3824 58.2435 46.6345C57.9914 46.8865 57.6496 47.0281 57.2931 47.0281ZM100.904 47.0281H86.7284C86.5519 47.0282 86.3771 46.9934 86.214 46.9259C86.0509 46.8584 85.9027 46.7594 85.7779 46.6346C85.6531 46.5097 85.5541 46.3616 85.4865 46.1985C85.419 46.0354 85.3843 45.8606 85.3843 45.6841V29.0534C85.3843 28.8769 85.419 28.7021 85.4865 28.539C85.5541 28.3759 85.6531 28.2277 85.7779 28.1029C85.9027 27.9781 86.0509 27.8791 86.214 27.8115C86.3771 27.744 86.5519 27.7093 86.7284 27.7093H100.904C101.081 27.7093 101.256 27.744 101.419 27.8115C101.582 27.8791 101.73 27.9781 101.855 28.1029C101.98 28.2277 102.079 28.3759 102.146 28.539C102.214 28.7021 102.248 28.8769 102.248 29.0534V45.6841C102.248 45.8606 102.214 46.0354 102.146 46.1985C102.079 46.3616 101.98 46.5097 101.855 46.6346C101.73 46.7594 101.582 46.8584 101.419 46.9259C101.256 46.9934 101.081 47.0282 100.904 47.0281ZM57.2931 80.1701H43.1172C42.9406 80.1701 42.7658 80.1354 42.6027 80.0679C42.4397 80.0003 42.2915 79.9013 42.1666 79.7765C42.0418 79.6517 41.9428 79.5035 41.8753 79.3404C41.8078 79.1773 41.773 79.0025 41.7731 78.826V62.1953C41.773 62.0188 41.8078 61.844 41.8753 61.6809C41.9428 61.5178 42.0418 61.3697 42.1666 61.2448C42.2915 61.12 42.4397 61.021 42.6027 60.9535C42.7658 60.8859 42.9406 60.8512 43.1172 60.8513H57.2931C57.4696 60.8512 57.6444 60.8859 57.8075 60.9535C57.9706 61.021 58.1188 61.12 58.2436 61.2448C58.3684 61.3697 58.4674 61.5178 58.5349 61.6809C58.6025 61.844 58.6372 62.0188 58.6372 62.1953V78.826C58.6372 79.1825 58.4956 79.5244 58.2435 79.7764C57.9914 80.0285 57.6496 80.1701 57.2931 80.1701ZM100.904 80.1701H86.7284C86.5519 80.1701 86.3771 80.1354 86.214 80.0679C86.0509 80.0003 85.9027 79.9013 85.7779 79.7765C85.6531 79.6517 85.5541 79.5035 85.4865 79.3404C85.419 79.1773 85.3843 79.0025 85.3843 78.826V62.1953C85.3843 62.0188 85.419 61.844 85.4865 61.6809C85.5541 61.5178 85.6531 61.3697 85.7779 61.2448C85.9027 61.12 86.0509 61.021 86.214 60.9535C86.3771 60.8859 86.5519 60.8512 86.7284 60.8513H100.904C101.081 60.8512 101.256 60.8859 101.419 60.9535C101.582 61.021 101.73 61.12 101.855 61.2448C101.98 61.3697 102.079 61.5178 102.146 61.6809C102.214 61.844 102.248 62.0188 102.248 62.1953V78.826C102.248 79.0025 102.214 79.1773 102.146 79.3404C102.079 79.5035 101.98 79.6517 101.855 79.7765C101.73 79.9013 101.582 80.0003 101.419 80.0679C101.256 80.1354 101.081 80.1701 100.904 80.1701ZM57.2931 113.312H43.1172C42.9406 113.312 42.7658 113.277 42.6027 113.21C42.4397 113.142 42.2915 113.043 42.1666 112.918C42.0418 112.793 41.9428 112.645 41.8753 112.482C41.8078 112.319 41.773 112.144 41.7731 111.968V95.337C41.773 95.1605 41.8078 94.9857 41.8753 94.8226C41.9428 94.6595 42.0418 94.5113 42.1666 94.3865C42.2915 94.2617 42.4397 94.1627 42.6027 94.0951C42.7658 94.0276 42.9406 93.9929 43.1172 93.9929H57.2931C57.4696 93.9929 57.6444 94.0276 57.8075 94.0951C57.9706 94.1627 58.1188 94.2617 58.2436 94.3865C58.3684 94.5113 58.4674 94.6595 58.5349 94.8226C58.6025 94.9857 58.6372 95.1605 58.6372 95.337V111.968C58.6372 112.324 58.4956 112.666 58.2435 112.918C57.9914 113.17 57.6496 113.312 57.2931 113.312ZM100.904 113.312H86.7284C86.5519 113.312 86.3771 113.277 86.214 113.21C86.0509 113.142 85.9027 113.043 85.7779 112.918C85.6531 112.793 85.5541 112.645 85.4865 112.482C85.419 112.319 85.3843 112.144 85.3843 111.968V95.337C85.3843 95.1605 85.419 94.9857 85.4865 94.8226C85.5541 94.6595 85.6531 94.5113 85.7779 94.3865C85.9027 94.2617 86.0509 94.1627 86.214 94.0951C86.3771 94.0276 86.5519 93.9929 86.7284 93.9929H100.904C101.081 93.9929 101.256 94.0276 101.419 94.0951C101.582 94.1627 101.73 94.2617 101.855 94.3865C101.98 94.5113 102.079 94.6595 102.146 94.8226C102.214 94.9857 102.248 95.1605 102.248 95.337V111.968C102.248 112.144 102.214 112.319 102.146 112.482C102.079 112.645 101.98 112.793 101.855 112.918C101.73 113.043 101.582 113.142 101.419 113.21C101.256 113.277 101.081 113.312 100.904 113.312ZM100.904 146.454H86.7284C86.5519 146.454 86.3771 146.419 86.214 146.351C86.0509 146.284 85.9027 146.185 85.7779 146.06C85.6531 145.935 85.5541 145.787 85.4865 145.624C85.419 145.461 85.3843 145.286 85.3843 145.11V128.479C85.3843 128.302 85.419 128.128 85.4865 127.965C85.5541 127.801 85.6531 127.653 85.7779 127.528C85.9027 127.404 86.0509 127.305 86.214 127.237C86.3771 127.17 86.5519 127.135 86.7284 127.135H100.904C101.081 127.135 101.256 127.17 101.419 127.237C101.582 127.305 101.73 127.404 101.855 127.528C101.98 127.653 102.079 127.801 102.146 127.965C102.214 128.128 102.248 128.302 102.248 128.479V145.11C102.248 145.286 102.214 145.461 102.146 145.624C102.079 145.787 101.98 145.935 101.855 146.06C101.73 146.185 101.582 146.284 101.419 146.351C101.256 146.419 101.081 146.454 100.904 146.454ZM30.0078 16.5053L122.849 2.37313C124.384 2.13968 125.766 3.32721 125.766 4.87943V16.5053H30.0078Z" stroke-width="3" stroke-miterlimit="10" stroke-linecap="round" stroke-linejoin="round"/>
</svg>