<svg xmlns="http://www.w3.org/2000/svg" viewBox="0 0 120 120">
    <path d="M18.7129 96.5803C18.5506 96.5805 18.3899 96.5486 18.24 96.4864C18.0901 96.4243 17.9539 96.3331 17.8394 96.2181L2.68834 81.0671C2.45676 80.8354 2.32666 80.5213 2.32666 80.1937C2.32666 79.8662 2.45676 79.552 2.68834 79.3204L5.51469 76.494C6.24323 75.7719 7.12736 75.2261 8.09938 74.8984C9.0714 74.5706 10.1055 74.4697 11.1226 74.6033C20.7967 75.8873 27.3988 74.4974 30.4743 73.5579C30.7864 73.4659 31.1222 73.5008 31.4088 73.6549C31.6954 73.8091 31.9095 74.07 32.0048 74.3812C32.1 74.6923 32.0687 75.0285 31.9175 75.3166C31.7664 75.6048 31.5076 75.8216 31.1975 75.9201C27.93 76.9207 20.934 78.3978 10.7975 77.0524C10.1565 76.968 9.50465 77.0312 8.89179 77.2372C8.27894 77.4432 7.72127 77.7866 7.2614 78.2411L5.30893 80.1939L19.5861 94.4714C19.7589 94.6442 19.8765 94.8643 19.9242 95.1039C19.9719 95.3435 19.9474 95.5918 19.854 95.8175C19.7605 96.0433 19.6022 96.2362 19.3991 96.3719C19.196 96.5077 18.9572 96.5802 18.7129 96.5803ZM50.0968 40.8C49.8524 40.8 49.6135 40.7276 49.4104 40.5918C49.2072 40.456 49.0488 40.263 48.9554 40.0372C48.8619 39.8114 48.8375 39.563 48.8852 39.3233C48.933 39.0837 49.0507 38.8636 49.2236 38.6908L50.322 37.5928C52.2273 35.6834 53.6487 33.3462 54.4676 30.7761L54.7941 29.7477L53.7653 30.0745C51.1953 30.8935 48.8583 32.3149 46.9489 34.2201L41.184 39.9854C41.0697 40.102 40.9335 40.1948 40.7831 40.2584C40.6328 40.3221 40.4713 40.3553 40.308 40.3561C40.1448 40.3569 39.983 40.3254 39.832 40.2633C39.681 40.2012 39.5438 40.1098 39.4283 39.9944C39.3129 39.879 39.2214 39.7418 39.1593 39.5908C39.0972 39.4398 39.0656 39.278 39.0664 39.1148C39.0672 38.9515 39.1004 38.79 39.164 38.6397C39.2276 38.4893 39.3203 38.353 39.4369 38.2387L45.2022 32.4706C47.3912 30.2857 50.0709 28.6558 53.0177 27.7168L56.3195 26.6686C56.5356 26.5995 56.7665 26.5912 56.987 26.6447C57.2075 26.6981 57.409 26.8113 57.5694 26.9717C57.7298 27.1321 57.8429 27.3336 57.8964 27.5541C57.9499 27.7745 57.9416 28.0055 57.8724 28.2215L56.8235 31.5222C55.8845 34.4692 54.2546 37.1489 52.0697 39.3381L50.9714 40.4365C50.8568 40.5518 50.7205 40.6433 50.5704 40.7056C50.4203 40.768 50.2594 40.8001 50.0968 40.8ZM20.2426 52.1764C20.0804 52.1765 19.9197 52.1447 19.7699 52.0826C19.62 52.0205 19.4839 51.9294 19.3694 51.8146L13.2445 45.6897C13.0166 45.4572 12.8898 45.1442 12.8914 44.8187C12.8931 44.4933 13.0231 44.1816 13.2533 43.9515C13.4835 43.7213 13.7952 43.5914 14.1207 43.5898C14.4461 43.5882 14.7591 43.7151 14.9915 43.943L21.1161 50.0675C21.2889 50.2403 21.4065 50.4604 21.4542 50.7001C21.5019 50.9397 21.4774 51.1881 21.3839 51.4138C21.2904 51.6395 21.1321 51.8325 20.9289 51.9682C20.7258 52.1039 20.4869 52.1764 20.2426 52.1764Z" fill="#00359C"/>
    <path d="M55.5374 41.0538H55.2783C46.3563 40.9793 33.2714 40.4305 21.6017 38.2391C21.4402 38.2114 21.2857 38.1519 21.1474 38.064C21.0091 37.9761 20.8896 37.8616 20.796 37.727C20.7024 37.5925 20.6365 37.4407 20.6022 37.2804C20.5678 37.1202 20.5657 36.9547 20.5959 36.7936C20.6261 36.6325 20.6881 36.4791 20.7782 36.3422C20.8684 36.2053 20.9848 36.0877 21.1208 35.9963C21.2569 35.9048 21.4097 35.8414 21.5705 35.8096C21.7313 35.7778 21.8968 35.7784 22.0574 35.8112C33.5488 37.9687 46.477 38.5094 55.2991 38.5832C59.666 38.6149 63.9859 37.68 67.9489 35.8454C68.0964 35.7739 68.2566 35.7325 68.4203 35.7235C68.584 35.7146 68.7478 35.7383 68.9022 35.7933C69.0566 35.8483 69.1986 35.9335 69.3197 36.0439C69.4409 36.1543 69.5389 36.2877 69.608 36.4363C69.6771 36.585 69.7159 36.7459 69.7222 36.9097C69.7284 37.0735 69.7021 37.2369 69.6445 37.3904C69.587 37.5439 69.4995 37.6844 69.3872 37.8038C69.2748 37.9231 69.1398 38.0189 68.9901 38.0855C64.7734 40.0366 60.1835 41.0493 55.5374 41.0538Z" fill="#00359C"/>
    <path d="M8.87582 49.6408C8.08245 49.641 7.30685 49.4059 6.64716 48.9651C5.98747 48.5244 5.47334 47.8979 5.16981 47.1649C4.86629 46.4318 4.78702 45.6253 4.94204 44.8472C5.09705 44.0691 5.47938 43.3545 6.04064 42.7938L21.1546 27.6815C22.8647 25.9743 24.9582 24.7006 27.2605 23.9668L29.7908 23.1635C30.0067 23.0946 30.2374 23.0864 30.4576 23.1398C30.6779 23.1932 30.8792 23.3061 31.0395 23.4663C31.1999 23.6265 31.313 23.8276 31.3667 24.0478C31.4204 24.268 31.4124 24.4987 31.3437 24.7147L30.5401 27.2453C29.8063 29.5483 28.5327 31.6425 26.8253 33.3533L11.7117 48.4662C11.3402 48.8399 10.8983 49.1361 10.4115 49.3377C9.92468 49.5393 9.40272 49.6424 8.87582 49.6408ZM28.2671 26.2408L28.0095 26.3223C26.0836 26.9358 24.3323 28.0007 22.9014 29.4282L7.78735 44.5415C7.64436 44.6845 7.53094 44.8542 7.45354 45.041C7.37615 45.2278 7.33631 45.428 7.33629 45.6302C7.33628 45.8324 7.37609 46.0326 7.45345 46.2194C7.53081 46.4063 7.64421 46.576 7.78717 46.719C7.93014 46.862 8.09986 46.9754 8.28666 47.0528C8.47346 47.1302 8.67368 47.17 8.87587 47.17C9.07807 47.1701 9.27829 47.1303 9.4651 47.0529C9.65191 46.9755 9.82166 46.8621 9.96464 46.7192L25.0786 31.6059C26.5063 30.175 27.5712 28.4235 28.1845 26.4974L28.2671 26.2408ZM37.3642 69.2982C37.2019 69.2984 37.0413 69.2665 36.8914 69.2044C36.7416 69.1422 36.6055 69.051 36.491 68.9361L19.3695 51.8149C19.2547 51.7002 19.1637 51.564 19.1017 51.4142C19.0396 51.2643 19.0076 51.1036 19.0076 50.9414C19.0076 50.7792 19.0396 50.6185 19.1017 50.4686C19.1637 50.3188 19.2547 50.1826 19.3695 50.0679L21.5722 47.8655C21.9314 47.5063 22.3578 47.2213 22.8271 47.0269C23.2964 46.8324 23.7995 46.7324 24.3075 46.7324C24.8155 46.7324 25.3185 46.8324 25.7878 47.0269C26.2572 47.2213 26.6836 47.5063 27.0428 47.8655L38.7113 59.5345C38.9392 59.7669 39.066 60.0799 39.0644 60.4054C39.0627 60.7309 38.9327 61.0425 38.7025 61.2727C38.4723 61.5028 38.1606 61.6328 37.8351 61.6344C37.5097 61.636 37.1967 61.509 36.9643 61.2812L25.2961 49.6122C25.0298 49.3581 24.6759 49.2164 24.3078 49.2164C23.9398 49.2164 23.5859 49.3581 23.3196 49.6122L21.9904 50.9414L38.2381 67.1894C38.4108 67.3622 38.5285 67.5823 38.5762 67.8219C38.6238 68.0616 38.5994 68.3099 38.5059 68.5357C38.4124 68.7614 38.254 68.9543 38.0509 69.0901C37.8477 69.2258 37.6085 69.2982 37.3642 69.2982ZM39.8062 117.674C39.644 117.674 39.4833 117.642 39.3335 117.58C39.1837 117.518 39.0475 117.427 38.933 117.312L23.7248 102.104C23.6068 101.99 23.5127 101.853 23.4479 101.703C23.3832 101.552 23.3491 101.39 23.3477 101.226C23.3463 101.062 23.3775 100.899 23.4396 100.747C23.5017 100.596 23.5935 100.458 23.7095 100.342C23.8254 100.226 23.9634 100.134 24.1152 100.072C24.267 100.01 24.4296 99.9786 24.5937 99.98C24.7577 99.9814 24.9198 100.015 25.0705 100.08C25.2212 100.145 25.3575 100.239 25.4715 100.357L39.8062 114.691L41.759 112.739C42.2137 112.279 42.5573 111.722 42.7633 111.109C42.9693 110.496 43.0324 109.844 42.9477 109.203C41.6002 99.0519 43.0829 92.0502 44.0866 88.7799C44.1895 88.4749 44.4074 88.2221 44.6939 88.0753C44.9804 87.9286 45.3128 87.8994 45.6204 87.9941C45.9281 88.0887 46.1866 88.2998 46.341 88.5822C46.4954 88.8646 46.5335 89.1962 46.4471 89.5062C45.5026 92.5835 44.1096 99.1927 45.3954 108.879C45.529 109.896 45.4281 110.93 45.1003 111.902C44.7726 112.874 44.2268 113.758 43.5046 114.487L40.6783 117.313C40.5638 117.428 40.4278 117.518 40.2781 117.58C40.1285 117.642 39.9681 117.674 39.8062 117.674ZM80.8628 80.952C80.6185 80.9519 80.3798 80.8793 80.1768 80.7436C79.9738 80.6079 79.8155 80.415 79.7221 80.1893C79.6286 79.9637 79.6042 79.7154 79.6518 79.4759C79.6994 79.2363 79.817 79.0163 79.9896 78.8435L85.7817 73.0514C87.6871 71.142 89.1084 68.8048 89.9274 66.2347L90.2542 65.2062L89.2257 65.5327C86.6555 66.3518 84.3183 67.7731 82.4086 69.6783L81.3707 70.717C81.256 70.8318 81.1198 70.9228 80.9699 70.9849C80.8201 71.047 80.6594 71.079 80.4972 71.0791C80.335 71.0791 80.1743 71.0472 80.0244 70.9851C79.8745 70.9231 79.7383 70.8321 79.6236 70.7174C79.5089 70.6027 79.4178 70.4665 79.3557 70.3167C79.2936 70.1668 79.2616 70.0062 79.2616 69.8439C79.2616 69.6817 79.2935 69.5211 79.3555 69.3712C79.4176 69.2213 79.5085 69.0851 79.6232 68.9703L80.6616 67.9316C82.8509 65.7465 85.5307 64.1162 88.4778 63.1768L91.7789 62.1286C91.995 62.0595 92.2259 62.0512 92.4464 62.1046C92.6668 62.1581 92.8683 62.2712 93.0288 62.4316C93.1892 62.5921 93.3023 62.7936 93.3558 63.014C93.4092 63.2345 93.4009 63.4654 93.3318 63.6815L92.2836 66.9829C91.3445 69.9297 89.7145 72.6093 87.5295 74.7981L81.7374 80.5902C81.6226 80.7052 81.4863 80.7963 81.3362 80.8584C81.1861 80.9205 81.0252 80.9523 80.8628 80.952ZM75.3131 107.247C75.1509 107.247 74.9902 107.215 74.8403 107.153C74.6904 107.091 74.5542 107 74.4396 106.885L68.1855 100.631C68.0689 100.517 67.9761 100.38 67.9125 100.23C67.8489 100.08 67.8158 99.9182 67.815 99.7549C67.8142 99.5916 67.8458 99.4298 67.9079 99.2789C67.97 99.1279 68.0614 98.9907 68.1769 98.8753C68.2923 98.7598 68.4295 98.6684 68.5805 98.6064C68.7315 98.5443 68.8933 98.5127 69.0566 98.5136C69.2198 98.5144 69.3813 98.5476 69.5317 98.6112C69.682 98.6748 69.8183 98.7676 69.9325 98.8842L76.1863 105.139C76.3589 105.311 76.4765 105.532 76.5241 105.771C76.5717 106.011 76.5472 106.259 76.4538 106.485C76.3604 106.71 76.2021 106.903 75.9991 107.039C75.7961 107.175 75.5573 107.247 75.3131 107.247Z" fill="#00359C"/>
    <path d="M83.0063 99.5741C82.7187 99.5738 82.4403 99.4731 82.219 99.2895C81.9976 99.1059 81.8473 98.8508 81.7939 98.5682C79.5767 86.8622 79.0219 73.701 78.9471 64.7212C78.9134 59.9876 79.927 55.3052 81.9153 51.0094C81.982 50.8596 82.0778 50.7246 82.1971 50.6123C82.3165 50.4999 82.457 50.4124 82.6105 50.3549C82.764 50.2974 82.9274 50.271 83.0912 50.2773C83.255 50.2835 83.4159 50.3224 83.5646 50.3914C83.7132 50.4605 83.8466 50.5585 83.957 50.6797C84.0674 50.8009 84.1526 50.9428 84.2076 51.0972C84.2626 51.2516 84.2863 51.4155 84.2774 51.5791C84.2684 51.7428 84.227 51.9031 84.1555 52.0506C82.3214 56.0137 81.3865 60.3335 81.4177 64.7003C81.4918 73.5789 82.0382 86.5827 84.2211 98.108C84.2544 98.2865 84.2481 98.4703 84.2025 98.6461C84.1569 98.8219 84.0731 98.9856 83.9572 99.1255C83.8413 99.2653 83.696 99.3779 83.5316 99.4553C83.3673 99.5328 83.1879 99.5731 83.0063 99.5734V99.5741Z" fill="#00359C"/>
    <path d="M74.3695 115.134C73.5761 115.135 72.8004 114.9 72.1407 114.459C71.4809 114.018 70.9667 113.392 70.6632 112.659C70.3596 111.926 70.2803 111.119 70.4353 110.341C70.5903 109.563 70.9726 108.848 71.5339 108.287L86.6469 93.1769C88.357 91.4697 90.4505 90.1961 92.7527 89.4622L95.2833 88.6585C95.4993 88.5898 95.73 88.5819 95.9502 88.6355C96.1704 88.6892 96.3716 88.8024 96.5317 88.9627C96.6919 89.1231 96.8049 89.3244 96.8583 89.5446C96.9117 89.7649 96.9035 89.9956 96.8345 90.2115L96.0312 92.7421C95.2972 95.0443 94.0236 97.1377 92.3165 98.8479L77.2029 113.962C76.8315 114.335 76.3899 114.63 75.9035 114.832C75.4172 115.033 74.8958 115.136 74.3695 115.134ZM93.5027 91.8152C91.5768 92.4285 89.8254 93.4934 88.3946 94.9211L73.2806 110.035C72.9919 110.324 72.8297 110.716 72.8298 111.124C72.8298 111.532 72.992 111.924 73.2808 112.213C73.5696 112.501 73.9612 112.664 74.3696 112.663C74.7779 112.663 75.1696 112.501 75.4583 112.212L90.5719 97.0984C91.9994 95.6676 93.0642 93.9164 93.6778 91.9907L93.7593 91.7326L93.5027 91.8152ZM69.0588 100.993C68.8965 100.993 68.7358 100.961 68.586 100.899C68.4361 100.837 68.2999 100.746 68.1852 100.631L51.064 83.5095C50.839 83.2765 50.7145 82.9645 50.7173 82.6406C50.7201 82.3167 50.8501 82.0069 51.0791 81.7778C51.3081 81.5488 51.618 81.4189 51.9418 81.4161C52.2657 81.4132 52.5778 81.5378 52.8107 81.7628L69.0588 98.0122L70.3879 96.6834C70.6499 96.4212 70.7971 96.0658 70.7971 95.6951C70.7971 95.3245 70.6499 94.969 70.3879 94.7069L58.7829 83.1011C58.6681 82.9865 58.5771 82.8503 58.5149 82.7005C58.4528 82.5506 58.4208 82.39 58.4207 82.2277C58.4206 82.0655 58.4525 81.9049 58.5145 81.755C58.5766 81.605 58.6675 81.4688 58.7822 81.3541C58.8968 81.2393 59.033 81.1483 59.1828 81.0861C59.3327 81.024 59.4933 80.9919 59.6555 80.9919C59.8178 80.9918 59.9784 81.0237 60.1283 81.0857C60.2782 81.1477 60.4145 81.2387 60.5292 81.3534L72.1343 92.9588C72.4935 93.3179 72.7785 93.7444 72.9729 94.2137C73.1674 94.683 73.2674 95.1861 73.2674 95.6941C73.2674 96.2021 73.1674 96.7051 72.9729 97.1744C72.7785 97.6437 72.4935 98.0702 72.1343 98.4294L69.9319 100.632C69.7003 100.863 69.3862 100.993 69.0588 100.993ZM74.1662 61.643C73.9219 61.643 73.6831 61.5705 73.4801 61.4348C73.277 61.2991 73.1187 61.1062 73.0252 60.8805C72.9317 60.6549 72.9072 60.4065 72.9548 60.167C73.0024 59.9274 73.12 59.7073 73.2926 59.5345L82.0138 50.813C82.754 49.2448 83.621 47.7397 84.6062 46.3127L91.995 35.6348C92.1836 35.371 92.4684 35.1921 92.7879 35.1365C93.1073 35.0809 93.4358 35.1531 93.7025 35.3376C93.9691 35.522 94.1526 35.804 94.2132 36.1225C94.2738 36.441 94.2068 36.7706 94.0265 37.0402L86.6377 47.7181C85.6908 49.0906 84.8621 50.5409 84.1604 52.0536C84.0994 52.1848 84.0157 52.3043 83.9133 52.4065L75.039 61.2812C74.9245 61.3961 74.7885 61.4872 74.6387 61.5493C74.4889 61.6114 74.3283 61.6433 74.1662 61.643Z" fill="#00359C"/>
    <path d="M22.7118 103.098C22.4261 103.098 22.1491 103 21.928 102.819C21.7068 102.638 21.5553 102.386 21.4991 102.106C21.4429 101.825 21.4856 101.535 21.6198 101.282C21.7541 101.03 21.9716 100.832 22.2354 100.722C29.954 97.4712 37.2603 93.317 44.0016 88.3468C45.2374 87.4283 46.4045 86.4208 47.4936 85.3323L59.2649 73.561C59.3788 73.4431 59.5151 73.3489 59.6659 73.2842C59.8166 73.2195 59.9787 73.1854 60.1427 73.184C60.3067 73.1825 60.4694 73.2138 60.6212 73.2759C60.773 73.338 60.9109 73.4297 61.0269 73.5457C61.1429 73.6617 61.2346 73.7996 61.2967 73.9514C61.3588 74.1033 61.3901 74.2659 61.3887 74.4299C61.3872 74.594 61.3532 74.7561 61.2884 74.9068C61.2237 75.0575 61.1296 75.1938 61.0116 75.3077L49.2406 87.0794C48.0661 88.2531 46.8076 89.3396 45.4751 90.3303C38.5718 95.4198 31.0899 99.6735 23.1858 103.003C23.0356 103.065 22.8746 103.098 22.7118 103.098ZM20.2426 100.629C20.0804 100.629 19.9198 100.597 19.77 100.535C19.6201 100.473 19.484 100.382 19.3695 100.267L17.2642 98.1621C17.0911 97.989 16.9733 97.7684 16.9258 97.5284C16.8783 97.2882 16.9032 97.0394 16.9974 96.8135C20.3258 88.9095 24.579 81.4278 29.6679 74.5246C30.6586 73.1919 31.7451 71.9333 32.9189 70.7587L44.3566 59.3213C44.5896 59.0962 44.9017 58.9717 45.2256 58.9746C45.5494 58.9774 45.8593 59.1073 46.0883 59.3363C46.3173 59.5653 46.4472 59.8752 46.4501 60.1991C46.4529 60.523 46.3284 60.835 46.1034 61.068L34.6677 72.5057C33.579 73.5954 32.5715 74.7632 31.6532 75.9999C26.8473 82.5183 22.8029 89.5652 19.5989 97.003L21.1165 98.5207C21.2892 98.6935 21.4067 98.9135 21.4543 99.1531C21.5019 99.3927 21.4775 99.641 21.384 99.8667C21.2905 100.092 21.1322 100.285 20.9291 100.421C20.726 100.557 20.4869 100.629 20.2426 100.629ZM60.1391 46.5226C59.8949 46.5225 59.6561 46.45 59.453 46.3143C59.2499 46.1786 59.0916 45.9857 58.9981 45.7601C58.9047 45.5344 58.8802 45.2861 58.9278 45.0465C58.9754 44.807 59.0929 44.5869 59.2656 44.4141L67.595 36.0847C67.6973 35.9823 67.8167 35.8987 67.9479 35.8376C69.4602 35.1366 70.9102 34.3084 72.2824 33.3621L82.961 25.9733C83.0943 25.8779 83.2452 25.8101 83.4049 25.7736C83.5647 25.7372 83.7301 25.7329 83.8915 25.761C84.0529 25.7891 84.2072 25.849 84.3452 25.9373C84.4833 26.0256 84.6024 26.1404 84.6956 26.2752C84.7888 26.4099 84.8543 26.5619 84.8882 26.7222C84.9221 26.8825 84.9238 27.048 84.8932 27.2089C84.8626 27.3699 84.8002 27.5232 84.7098 27.6598C84.6193 27.7964 84.5026 27.9137 84.3664 28.0048L73.6882 35.3936C72.2613 36.3788 70.7563 37.2458 69.1882 37.986L61.013 46.1608C60.8984 46.2758 60.7622 46.3669 60.6122 46.429C60.4622 46.4911 60.3014 46.5229 60.1391 46.5226Z" fill="#00359C"/>
    <path d="M83.6631 28.2247C83.4188 28.2247 83.1799 28.1523 82.9768 28.0165C82.7736 27.8808 82.6153 27.6879 82.5218 27.4621C82.4283 27.2364 82.4038 26.988 82.4515 26.7484C82.4991 26.5087 82.6168 26.2886 82.7896 26.1159C89.1178 19.788 97.1924 13.8176 97.2732 13.758C97.537 13.5636 97.8671 13.482 98.191 13.531C98.515 13.5801 98.8061 13.7558 99.0005 14.0195C99.1949 14.2832 99.2765 14.6134 99.2275 14.9373C99.1784 15.2613 99.0027 15.5524 98.739 15.7468C98.6596 15.8054 90.7297 21.6695 84.5366 27.8626C84.4221 27.9775 84.2859 28.0687 84.136 28.1308C83.9861 28.1929 83.8254 28.2249 83.6631 28.2247ZM93.0111 37.5727C92.7668 37.5726 92.528 37.5002 92.3249 37.3644C92.1218 37.2286 91.9635 37.0357 91.87 36.81C91.7766 36.5843 91.7521 36.3359 91.7998 36.0963C91.8475 35.8567 91.9652 35.6366 92.1379 35.4639C98.3144 29.2874 103.891 21.1038 103.947 21.0219C104.131 20.7507 104.415 20.5638 104.737 20.5021C105.059 20.4405 105.392 20.5092 105.663 20.6931C105.934 20.877 106.121 21.1611 106.183 21.4829C106.244 21.8047 106.176 22.1378 105.992 22.4089C105.759 22.7516 100.229 30.8658 93.8857 37.2109C93.771 37.3259 93.6346 37.4171 93.4845 37.4791C93.3344 37.5412 93.1735 37.573 93.0111 37.5727ZM73.1409 48.0949C72.9749 48.095 72.8106 48.0617 72.6577 47.9969C72.5049 47.932 72.3667 47.8371 72.2514 47.7177C72.1361 47.5982 72.0461 47.4568 71.9866 47.3018C71.9272 47.1468 71.8996 46.9814 71.9056 46.8155C72.2811 36.3462 79.9304 28.9588 80.2562 28.6493C80.4942 28.4267 80.8105 28.3072 81.1362 28.3168C81.4619 28.3264 81.7706 28.4642 81.9952 28.7004C82.2197 28.9366 82.3418 29.2519 82.3349 29.5776C82.328 29.9034 82.1927 30.2133 81.9584 30.4398C81.8525 30.541 75.4 36.8199 74.4729 45.5269C83.2053 44.5969 89.4948 38.1099 89.5608 38.0407C89.7874 37.8069 90.0972 37.6721 90.4227 37.6655C90.7483 37.659 91.0632 37.7812 91.2991 38.0057C91.535 38.2301 91.6728 38.5386 91.6824 38.8641C91.692 39.1895 91.5727 39.5056 91.3505 39.7436C91.041 40.0694 83.6536 47.7201 73.1843 48.0942L73.1409 48.0949Z" fill="#00359C"/>
    <path d="M85.6728 42.3783H85.6093C82.4896 42.3497 80.2689 40.1848 80.0438 39.9568C79.8186 39.7288 77.6508 37.5109 77.6222 34.3913C77.6035 32.3477 78.482 30.4231 80.234 28.6715L82.7893 26.1162C83.7517 25.1517 84.7961 24.2726 85.9107 23.4889C91.514 19.56 96.0221 18.8177 98.6018 21.3988C101.181 23.9798 100.44 28.4862 96.5116 34.0898C95.7279 35.2044 94.8488 36.2488 93.8843 37.2113L91.329 39.7665C89.5954 41.4995 87.6927 42.3783 85.6728 42.3783ZM94.694 22.3415C92.186 22.3415 88.9058 24.4055 87.3288 25.5105C86.3319 26.2121 85.3976 26.9987 84.5363 27.8615L81.9807 30.4171C80.7154 31.6828 80.0805 33.0116 80.0928 34.3673C80.1122 36.5304 81.7576 38.1765 81.7746 38.1928C81.7856 38.2029 81.7962 38.2135 81.8063 38.2245C81.8187 38.2373 83.4743 39.8968 85.6534 39.9063H85.6721C87.0133 39.9063 88.3301 39.271 89.583 38.0181L92.1387 35.4624C93.0014 34.6012 93.788 33.6669 94.4896 32.67C95.9635 30.5678 99.1439 25.4318 96.8543 23.1437C96.567 22.8711 96.2275 22.6595 95.8562 22.5217C95.4849 22.3838 95.0896 22.3225 94.694 22.3415ZM104.385 23.0449C102.268 23.0449 100.075 21.0377 99.3793 20.3424C98.5739 19.5367 96.0101 16.7237 96.8381 14.346C96.9214 14.1069 97.0761 13.8991 97.2814 13.7509C102.094 10.4177 107.301 7.69117 112.782 5.63325C113.005 5.55164 113.247 5.53612 113.478 5.58856C113.71 5.64099 113.922 5.75915 114.088 5.92887C114.254 6.09859 114.368 6.31267 114.416 6.54544C114.464 6.77822 114.443 7.01981 114.357 7.24125C112.199 12.644 109.375 17.7567 105.953 22.4615C105.806 22.6555 105.605 22.8018 105.375 22.8818C105.056 22.9915 104.722 23.0466 104.385 23.0449ZM99.1544 15.4591C99.2279 16.0944 99.849 17.3188 101.126 18.5964C102.413 19.8829 103.647 20.5023 104.277 20.5697C106.852 16.9381 109.079 13.0722 110.929 9.02325C106.813 10.7976 102.871 12.9522 99.1544 15.4591ZM30.1661 25.5762C29.9219 25.5759 29.6832 25.5033 29.4803 25.3674C29.2774 25.2316 29.1192 25.0387 29.0259 24.813C28.9326 24.5873 28.9082 24.339 28.9559 24.0995C29.0037 23.86 29.1213 23.64 29.294 23.4674L32.541 20.2203C32.774 19.9953 33.0861 19.8708 33.41 19.8736C33.7338 19.8764 34.0437 20.0063 34.2727 20.2354C34.5017 20.4644 34.6317 20.7742 34.6345 21.0981C34.6373 21.422 34.5128 21.734 34.2877 21.967L31.0407 25.2141C30.9261 25.3292 30.7898 25.4205 30.6396 25.4827C30.4895 25.5448 30.3286 25.5766 30.1661 25.5762ZM30.6817 39.4796C30.4375 39.4796 30.1987 39.4071 29.9956 39.2714C29.7926 39.1357 29.6343 38.9428 29.5408 38.7171C29.4473 38.4915 29.4228 38.2431 29.4704 38.0036C29.518 37.764 29.6356 37.5439 29.8082 37.3711L38.0469 29.1317C38.2799 28.9067 38.5919 28.7822 38.9158 28.785C39.2397 28.7878 39.5496 28.9177 39.7786 29.1468C40.0076 29.3758 40.1375 29.6856 40.1403 30.0095C40.1432 30.3334 40.0187 30.6455 39.7936 30.8784L31.5549 39.1178C31.4404 39.2327 31.3043 39.3239 31.1545 39.3859C31.0046 39.448 30.844 39.4799 30.6817 39.4796Z" fill="#00359C"/>
    <path d="M37.6634 35.3453C37.3498 35.345 37.0481 35.2254 36.8194 35.0108C36.5907 34.7963 36.4522 34.5027 36.4319 34.1898C36.3927 33.5791 36.4357 32.9658 36.5597 32.3665C35.9607 32.4895 35.3481 32.5323 34.7378 32.4939C34.5759 32.4835 34.4177 32.4412 34.2721 32.3696C34.1265 32.298 33.9965 32.1984 33.8894 32.0766C33.7823 31.9547 33.7003 31.8129 33.648 31.6594C33.5957 31.5058 33.5741 31.3434 33.5846 31.1815C33.595 31.0196 33.6373 30.8614 33.7089 30.7158C33.7805 30.5702 33.8801 30.4402 34.002 30.3331C34.1238 30.226 34.2656 30.144 34.4192 30.0917C34.5727 30.0394 34.7351 30.0178 34.897 30.0283C36.1592 30.0696 37.3918 29.6408 38.3558 28.8251C38.5901 28.6043 38.9014 28.4836 39.2234 28.4889C39.5453 28.4942 39.8524 28.625 40.0794 28.8534C40.3063 29.0818 40.4351 29.3898 40.4383 29.7118C40.4415 30.0337 40.3189 30.3442 40.0965 30.5771C39.2839 31.5402 38.8571 32.7704 38.8987 34.0299C38.9092 34.1919 38.8877 34.3543 38.8355 34.5079C38.7832 34.6615 38.7012 34.8034 38.5941 34.9253C38.4871 35.0472 38.357 35.1468 38.2114 35.2185C38.0658 35.2901 37.9075 35.3324 37.7456 35.3429C37.7174 35.3446 37.6902 35.3453 37.6634 35.3453ZM95.6594 91.0695C95.4151 91.0693 95.1764 90.9968 94.9734 90.8611C94.7704 90.7253 94.6121 90.5324 94.5187 90.3068C94.4252 90.0812 94.4008 89.8329 94.4484 89.5933C94.496 89.3538 94.6136 89.1337 94.7862 88.961L98.035 85.7139C98.268 85.4889 98.58 85.3644 98.9039 85.3672C99.2278 85.37 99.5376 85.4999 99.7667 85.729C99.9957 85.958 100.126 86.2678 100.128 86.5917C100.131 86.9156 100.007 87.2277 99.7817 87.4606L96.5347 90.7077C96.4199 90.8228 96.2834 90.9141 96.1332 90.9761C95.983 91.0382 95.8219 91.07 95.6594 91.0695ZM81.756 90.5538C81.5117 90.5538 81.2729 90.4813 81.0698 90.3456C80.8668 90.2099 80.7085 90.017 80.615 89.7913C80.5215 89.5657 80.497 89.3174 80.5446 89.0778C80.5922 88.8382 80.7098 88.6181 80.8824 88.4453L89.1218 80.2059C89.3548 79.9809 89.6669 79.8564 89.9907 79.8592C90.3146 79.862 90.6245 79.9919 90.8535 80.221C91.0825 80.45 91.2124 80.7598 91.2153 81.0837C91.2181 81.4076 91.0936 81.7197 90.8685 81.9526L82.6291 90.192C82.5146 90.3069 82.3785 90.3981 82.2287 90.4601C82.0788 90.5222 81.9182 90.5541 81.756 90.5538Z" fill="#00359C"/>
    <path d="M88.7381 86.4182C88.4244 86.418 88.1225 86.2984 87.8938 86.0837C87.665 85.869 87.5265 85.5754 87.5063 85.2623C87.4674 84.6521 87.5102 84.0393 87.6337 83.4404C87.0344 83.5641 86.4212 83.6071 85.8104 83.5682C85.4835 83.547 85.1783 83.3968 84.9621 83.1506C84.7459 82.9044 84.6364 82.5824 84.6576 82.2554C84.6788 81.9285 84.829 81.6233 85.0752 81.4071C85.3214 81.1909 85.6434 81.0814 85.9703 81.1026C87.2333 81.1486 88.4676 80.7191 89.4292 79.899C89.6638 79.6796 89.9746 79.5602 90.2958 79.5662C90.6169 79.5721 90.9232 79.7029 91.1495 79.9309C91.3758 80.1588 91.5045 80.4659 91.5081 80.7871C91.5118 81.1083 91.3902 81.4183 91.1692 81.6514C90.357 82.6144 89.9304 83.8441 89.9716 85.1031C89.9821 85.2651 89.9606 85.4275 89.9083 85.5811C89.856 85.7347 89.774 85.8765 89.6668 85.9984C89.5597 86.1203 89.4297 86.2199 89.284 86.2915C89.1384 86.3631 88.9801 86.4053 88.8182 86.4157C88.7915 86.4174 88.7648 86.4183 88.7381 86.4182ZM16.6442 104.591C16.3999 104.591 16.1611 104.519 15.958 104.383C15.7549 104.247 15.5966 104.054 15.5031 103.828C15.4097 103.603 15.3853 103.354 15.4329 103.115C15.4806 102.875 15.5983 102.655 15.771 102.482L41.7281 76.5249C41.9598 76.2932 42.274 76.1631 42.6016 76.1631C42.9293 76.1631 43.2435 76.2932 43.4752 76.5249C43.7068 76.7566 43.837 77.0708 43.837 77.3984C43.837 77.7261 43.7068 78.0403 43.4752 78.272L17.5177 104.229C17.4032 104.344 17.267 104.435 17.1171 104.497C16.9672 104.559 16.8065 104.591 16.6442 104.591ZM113.207 8.02821C112.963 8.02822 112.724 7.95578 112.521 7.82005C112.318 7.68431 112.159 7.49138 112.066 7.26565C111.972 7.03992 111.948 6.79153 111.996 6.55189C112.043 6.31226 112.161 6.09214 112.334 5.91938L115.565 2.68856C115.798 2.46354 116.11 2.33903 116.434 2.34184C116.758 2.34466 117.067 2.47457 117.296 2.70361C117.525 2.93264 117.655 3.24247 117.658 3.56636C117.661 3.89025 117.537 4.20229 117.312 4.43526L114.081 7.66644C113.966 7.78126 113.83 7.87231 113.68 7.93439C113.53 7.99647 113.369 8.02835 113.207 8.02821Z" fill="#00359C"/>
</svg>