<svg width="120" height="120" viewBox="0 0 120 120" fill="none" xmlns="http://www.w3.org/2000/svg">
<g clip-path="url(#clip0_192_3361)">
<path d="M104.649 66.8343C106.108 67.5582 107.716 67.9348 109.345 67.9347C113.265 67.9347 117.042 65.7605 118.894 62.0155C119.516 60.7651 119.885 59.4035 119.978 58.0097C120.071 56.6159 119.886 55.2174 119.435 53.8955C118.991 52.571 118.289 51.3478 117.369 50.2965C116.449 49.2453 115.33 48.3868 114.076 47.771C108.82 45.1716 102.43 47.3338 99.8313 52.5892C99.3265 53.6093 98.9882 54.7036 98.8295 55.8306L88.5418 58.9369C86.868 56.6472 84.6644 54.797 82.1195 53.5448C79.4304 52.2088 76.4436 51.5851 73.4446 51.7333L71.1626 43.2604C73.4682 41.6176 75.1145 39.2084 75.8071 36.4635C76.198 34.9379 76.2825 33.3499 76.0556 31.7914C75.8288 30.2329 75.2952 28.7349 74.4857 27.384C73.6833 26.0288 72.6201 24.8462 71.3576 23.9047C70.0951 22.9632 68.6584 22.2814 67.1306 21.8988C65.605 21.5077 64.0169 21.4231 62.4583 21.6499C60.8997 21.8767 59.4016 22.4105 58.0506 23.2203C56.6954 24.0227 55.5128 25.086 54.5712 26.3484C53.6296 27.6109 52.9477 29.0476 52.5649 30.5753C50.9412 36.9824 54.8332 43.5163 61.2419 45.14C61.9324 45.3148 62.6233 45.422 63.3099 45.4727L65.6066 54C62.5416 55.7244 60.0642 58.3227 58.471 61.544C56.8279 64.86 56.275 68.6105 56.8914 72.2596L47.206 75.8996C46.0998 74.4768 44.6853 73.3235 43.0689 72.5264C41.6095 71.8035 40.0176 71.3873 38.3911 71.3035L36.205 60.0357C37.7608 58.9341 39.0164 57.4608 39.8575 55.75C40.5309 54.3976 40.9295 52.925 41.0299 51.4176C41.1304 49.9101 40.9308 48.3977 40.4428 46.9679C39.9627 45.5353 39.2032 44.2122 38.2083 43.0751C37.2133 41.938 36.0028 41.0096 34.6467 40.3435C32.1293 39.097 29.2415 38.8191 26.5326 39.5627L19.6992 31.1111C20.549 29.711 21.0609 28.1321 21.1944 26.4998L28.2113 24.4176C28.9662 25.183 29.8439 25.8167 30.808 26.2923C32.1297 26.948 33.5851 27.289 35.0605 27.2887C38.6095 27.2887 42.0305 25.3198 43.7076 21.9287C46.0609 17.1693 44.1045 11.3824 39.3451 9.02912C38.2126 8.46529 36.9795 8.13166 35.7172 8.04754C34.4549 7.96342 33.1885 8.13049 31.9912 8.53908C30.7918 8.94119 29.684 9.57722 28.7321 10.4104C27.7802 11.2435 27.003 12.2572 26.4455 13.3927C25.9788 14.3356 25.6692 15.3485 25.5291 16.3912L18.4779 18.4837C17.5859 17.4972 16.5155 16.688 15.3231 16.0988C10.0758 13.5032 3.69488 15.6622 1.09982 20.9094C-1.4947 26.1573 0.663132 32.5377 5.91097 35.1327C7.37055 35.8586 8.97822 36.2371 10.6083 36.2386C11.3352 36.2386 12.0638 36.1624 12.7847 36.0104L19.7536 44.6309C19.5685 44.9309 19.3972 45.2392 19.2402 45.5549C16.4295 51.2389 18.7676 58.1501 24.4515 60.9608C25.5615 61.5099 26.7527 61.8763 27.9793 62.046L30.2804 73.904C28.9041 74.9974 27.7869 76.382 27.009 77.9583C24.0791 83.8835 26.5163 91.0877 32.4415 94.0181C34.0873 94.8344 35.8995 95.2591 37.7367 95.259C42.1558 95.259 46.4143 92.8083 48.5019 88.5863C49.2132 87.1516 49.6282 85.5883 49.7221 83.9896L60.239 80.0372C61.886 82.2173 64.0198 83.9824 66.4702 85.1913C68.94 86.4127 71.602 87.0296 74.2793 87.0296C76.1834 87.0296 78.0951 86.7176 79.9513 86.0898C80.9246 85.7594 81.8676 85.3455 82.7696 84.8527L94.0363 95.2683C91.549 101.074 94.0167 107.9 99.7448 110.732C101.39 111.549 103.202 111.973 105.039 111.973C109.459 111.973 113.719 109.522 115.807 105.299C116.509 103.889 116.925 102.354 117.029 100.782C117.134 99.21 116.926 97.6331 116.418 96.1422C115.917 94.6488 115.125 93.2694 114.088 92.084C113.051 90.8987 111.789 89.9308 110.375 89.2364C108.965 88.5341 107.429 88.1186 105.858 88.0138C104.286 87.909 102.709 88.1171 101.218 88.626C100.762 88.7801 100.322 88.9625 99.8945 89.1656L89.0155 79.1083C89.4226 78.4936 89.7912 77.8542 90.1192 77.1938C91.7336 73.9285 92.2863 70.3288 91.7597 66.8011L101.086 63.9849C102.053 65.1821 103.269 66.1544 104.649 66.8343ZM29.1293 14.7196C29.5135 13.9372 30.049 13.2388 30.705 12.6648C31.3609 12.0907 32.1241 11.6524 32.9506 11.3753C33.6369 11.1422 34.3568 11.0228 35.0817 11.022C36.0879 11.022 37.0887 11.2539 38.0165 11.7129C41.2955 13.3344 42.6436 17.3212 41.0221 20.6007C39.4006 23.8802 35.4138 25.2284 32.1354 23.6074C31.9373 23.5094 31.7456 23.4027 31.5605 23.2872C32.2209 22.8998 32.7628 22.339 33.1275 21.6657C33.3938 21.1781 33.5606 20.6425 33.6184 20.0899C33.6761 19.5374 33.6237 18.9788 33.464 18.4467C32.8613 16.4152 30.8581 15.1792 28.8195 15.4678C28.9093 15.2146 29.0084 14.9641 29.1293 14.7196ZM29.0596 18.4674C29.3734 18.3747 29.7111 18.4103 29.9987 18.5662C30.2864 18.7222 30.5004 18.9858 30.594 19.2994C30.6876 19.6152 30.6528 19.949 30.496 20.2386C30.3386 20.5283 30.0778 20.7396 29.762 20.8332L21.0005 23.4332C20.8297 22.6251 20.566 21.8394 20.2148 21.0918L29.0596 18.4674ZM12.1661 28.6375C10.8016 29.7803 10.347 31.6311 10.8849 33.2357C9.62258 33.2812 8.3689 33.0103 7.2379 32.4478C3.47054 30.5846 1.92091 26.0037 3.78363 22.2364C5.1111 19.552 7.81888 17.9937 10.629 17.9937C11.7626 17.9937 12.9126 18.2474 13.9956 18.7826C17.6492 20.5893 19.2162 24.9507 17.6105 28.6483C16.9559 28.0922 16.1462 27.7506 15.291 27.6699C14.7319 27.6139 14.1672 27.6707 13.6305 27.8369C13.0937 28.0031 12.5957 28.2753 12.1661 28.6375ZM13.9227 32.6547C13.7206 32.4026 13.625 32.0816 13.6561 31.76C13.6872 31.4385 13.8427 31.1417 14.0893 30.933C14.2146 30.8274 14.3598 30.7479 14.5164 30.6993C14.6729 30.6508 14.8376 30.6342 15.0008 30.6504C15.164 30.6658 15.3226 30.7137 15.467 30.7914C15.6114 30.8691 15.7387 30.9751 15.8415 31.1029L23.6642 40.7786C22.954 41.1997 22.2913 41.6962 21.6877 42.2596L13.9227 32.6547ZM27.2769 58.4267L27.3635 58.8738C26.8168 58.7273 26.2861 58.5268 25.779 58.2754C21.575 56.1965 19.8462 51.0848 21.9245 46.8813C23.4061 43.8855 26.427 42.1469 29.5627 42.1469C30.8276 42.1469 32.1109 42.43 33.3192 43.0273C34.3222 43.5199 35.2176 44.2066 35.9534 45.0476C36.6892 45.8886 37.2509 46.8672 37.606 47.9267C37.9669 48.9842 38.1145 50.1027 38.0403 51.2176C37.9661 52.3326 37.6716 53.4217 37.1737 54.422H37.1731C36.7594 55.2603 36.2102 56.0247 35.5478 56.6844C35.4241 56.1403 35.1944 55.626 34.8717 55.1709C34.5489 54.7158 34.1396 54.3288 33.6671 54.0321C33.1737 53.7255 32.6226 53.5234 32.0479 53.4384C31.4732 53.3533 30.8872 53.3871 30.3261 53.5377C28.1955 54.1132 26.8566 56.2607 27.2769 58.4267ZM30.2166 57.8566C30.1585 57.5504 30.2178 57.2335 30.3827 56.969C30.5477 56.7046 30.8063 56.5119 31.1069 56.4295C31.2706 56.3846 31.4418 56.3742 31.6097 56.399C31.7776 56.4239 31.9385 56.4834 32.0821 56.5738C32.3761 56.7573 32.5749 57.0459 32.6407 57.3862L35.3844 71.5289C34.5704 71.6939 33.776 71.9427 33.0137 72.2705L30.2166 57.8566ZM45.817 87.2588C45.2961 88.3193 44.57 89.2659 43.6808 90.0439C42.7916 90.8219 41.7569 91.4158 40.6366 91.7912C39.5184 92.1729 38.3356 92.3289 37.1566 92.2503C35.9777 92.1717 34.826 91.86 33.7684 91.3332C29.3231 89.1351 27.4953 83.7305 29.6928 79.2852C31.2594 76.1179 34.4539 74.2791 37.7693 74.2791C39.1066 74.2791 40.4635 74.5781 41.7414 75.2102C46.1867 77.4089 48.0145 82.8135 45.817 87.2588ZM73.0428 61.7585C73.1184 62.0378 73.0798 62.3297 72.9355 62.5807C72.7912 62.8317 72.5571 63.0114 72.2783 63.0865C72.0007 63.161 71.705 63.1223 71.4559 62.979C71.2069 62.8357 71.0248 62.5994 70.9497 62.322L66.3662 45.3044C67.0782 45.172 67.7767 44.9753 68.4532 44.7169L73.0428 61.7585ZM64.1849 42.5139C63.4564 42.5139 62.7153 42.4246 61.9775 42.2373C57.1702 41.0192 54.2501 36.1177 55.4681 31.3109C55.7552 30.1648 56.2668 29.087 56.9731 28.1398C57.6795 27.1927 58.5667 26.395 59.5834 25.793C60.5969 25.1858 61.7208 24.7855 62.89 24.6154C64.0592 24.4453 65.2505 24.5087 66.395 24.802C68.7238 25.3923 70.6835 26.8537 71.9129 28.9173C73.1424 30.981 73.4941 33.3996 72.9044 35.7284C71.8732 39.7974 68.2038 42.5144 64.1849 42.5139ZM62.5057 75.9861L49.4928 80.8762C49.327 80.0666 49.0783 79.2762 48.7507 78.5175L61.6367 73.6748C61.7883 73.6174 61.9499 73.5906 62.1119 73.596C62.274 73.6014 62.4334 73.6389 62.5808 73.7063C62.8814 73.8425 63.1101 74.0875 63.2261 74.3967C63.2835 74.5484 63.3104 74.7099 63.3051 74.8719C63.2997 75.034 63.2623 75.1934 63.195 75.3409C63.1285 75.4887 63.0333 75.6218 62.915 75.7326C62.7967 75.8433 62.6576 75.9295 62.5057 75.9861ZM78.9914 83.2529C75.2823 84.5075 71.3069 84.2428 67.7976 82.507C66.0349 81.6377 64.4662 80.4208 63.1858 78.9297L63.5593 78.7892C65.7422 77.9686 66.8508 75.5255 66.0302 73.3426C65.2097 71.1603 62.7671 70.0511 60.5836 70.8717L59.7571 71.1821C59.3943 68.3344 59.8809 65.4429 61.1559 62.8709C62.3614 60.4332 64.1768 58.4246 66.4157 57.0034L68.0579 63.1007C68.548 64.9182 70.1989 66.1188 71.9973 66.1188C72.3552 66.1187 72.7114 66.0715 73.0569 65.9783C74.1089 65.6952 74.9871 65.0189 75.5305 64.0748C76.074 63.1306 76.2177 62.0313 75.934 60.9793L74.2439 54.7046L74.3076 54.7035C76.5575 54.7056 78.7764 55.228 80.7909 56.2297C84.3007 57.9655 86.9246 60.9635 88.1791 64.6726C89.4337 68.3817 89.169 72.3571 87.4332 75.8663C87.2328 76.2714 87.0139 76.6629 86.7809 77.0435L82.8197 73.3818C81.1078 71.7979 78.4267 71.903 76.8439 73.6143C75.2605 75.3257 75.3645 78.0067 77.0764 79.5907L80.4217 82.6834C79.9584 82.8958 79.4814 83.0869 78.9914 83.2529ZM102.176 91.4623C103.107 91.1459 104.084 90.9841 105.067 90.9831C106.431 90.9831 107.787 91.2973 109.046 91.9202C111.2 92.9852 112.809 94.8251 113.579 97.1011C114.349 99.3771 114.187 101.817 113.121 103.971C110.923 108.417 105.516 110.246 101.071 108.048C96.6243 105.849 94.7958 100.443 96.994 95.9963C97.5154 94.9357 98.242 93.9889 99.1315 93.2106C100.021 92.4324 101.056 91.8382 102.176 91.4623ZM97.2956 90.8416C96.666 91.3751 96.0939 91.9729 95.5886 92.6253L79.1106 77.392C78.8707 77.1695 78.7289 76.861 78.7161 76.5341C78.7034 76.2072 78.8208 75.8885 79.0425 75.648C79.1581 75.523 79.2983 75.4233 79.4544 75.3553C79.6104 75.2872 79.7789 75.2523 79.9491 75.2527C80.2491 75.2527 80.5502 75.3611 80.7871 75.5805L97.2956 90.8416ZM102.515 53.9167C103.846 51.2263 106.559 49.6647 109.375 49.6647C110.51 49.6647 111.663 49.919 112.748 50.4553C113.649 50.8976 114.453 51.5141 115.114 52.2692C115.774 53.0243 116.279 53.903 116.597 54.8543C117.251 56.7873 117.113 58.8585 116.209 60.688C114.342 64.4635 109.751 66.0164 105.976 64.1494C105.369 63.8469 104.804 63.4652 104.297 63.0141L104.716 62.8878C105.797 62.5611 106.687 61.8331 107.221 60.8372C107.754 59.8413 107.868 58.6979 107.541 57.616C106.867 55.3846 104.504 54.1171 102.271 54.7911L102.135 54.8325C102.242 54.5222 102.367 54.2156 102.515 53.9167ZM91.0688 63.8804C91.0503 63.8243 91.0356 63.7682 91.0165 63.7127C90.7689 62.9851 90.4749 62.2741 90.1361 61.5843L103.137 57.6585C103.371 57.5888 103.62 57.5898 103.853 57.6612C104.086 57.7327 104.293 57.8714 104.447 58.06C104.602 58.2486 104.697 58.4786 104.721 58.7212C104.745 58.9637 104.696 59.208 104.582 59.4232C104.506 59.5663 104.402 59.693 104.276 59.7957C104.151 59.8984 104.006 59.9752 103.851 60.0216L91.0688 63.8804Z" fill="#00359C"/>
</g>
<defs>
<clipPath id="clip0_192_3361">
<rect width="120" height="120" fill="white"/>
</clipPath>
</defs>
</svg>
