<svg xmlns="http://www.w3.org/2000/svg" viewBox="0 0 120 120">
    <g clip-path="url(#clip0_253_5946)">
    <path d="M69.8812 4.52637C88.7227 10.2896 103.076 26.3303 106.404 46.1115M61.8797 2.7498C59.4175 2.40305 56.9341 2.22918 54.4477 2.22949C25.3477 2.22949 1.75781 25.8193 1.75781 54.9193C1.75781 84.017 25.3477 107.607 54.4477 107.607C56.9039 107.607 59.3227 107.438 61.6898 107.112" stroke="#00359C" stroke-width="2.8" stroke-miterlimit="10" stroke-linecap="round" stroke-linejoin="round"/>
    <path d="M15.5952 19.3296H26.8522C31.7366 19.3296 35.6976 23.2905 35.6976 28.1772V28.278C35.6976 30.7202 34.7062 32.9327 33.1077 34.5312C31.5046 36.1343 29.2944 37.1233 26.8522 37.1233C21.9655 37.1233 18.0069 41.0866 18.0069 45.971V46.0718C18.0069 50.9585 21.9655 54.9194 26.8522 54.9194H44.6577C49.5444 54.9194 53.5054 58.8804 53.5054 63.7671V63.8679C53.5054 68.7522 49.5444 72.7155 44.6577 72.7155H43.214M15.5952 90.5093H21.4218C26.3062 90.5093 30.2647 86.5483 30.2647 81.6616V81.5608C30.2647 78.1108 32.2405 75.1226 35.1233 73.6647M76.7038 46.1126V45.9532C76.7038 41.0758 72.7522 37.1243 67.8772 37.1243C65.4397 37.1243 63.2343 36.1352 61.6358 34.5368C60.8142 33.719 60.1626 32.7467 59.7185 31.6759C59.2744 30.6051 59.0466 29.457 59.0483 28.2977V28.1571C59.0483 23.2821 62.9999 19.3305 67.8772 19.3305H93.2999" stroke="#00359C" stroke-width="2.8" stroke-miterlimit="10" stroke-linecap="round" stroke-linejoin="round"/>
    <path d="M48.61 101.003C52.1808 101.003 55.0755 98.108 55.0755 94.5372C55.0755 90.9665 52.1808 88.0718 48.61 88.0718C45.0392 88.0718 42.1445 90.9665 42.1445 94.5372C42.1445 98.108 45.0392 101.003 48.61 101.003Z" stroke="#00359C" stroke-width="2.8" stroke-miterlimit="10" stroke-linecap="round" stroke-linejoin="round"/>
    <path d="M68.1929 117.769H111.739C115.33 117.769 118.242 114.858 118.242 111.266V52.6148C118.242 49.023 115.33 46.1113 111.739 46.1113H68.1929C64.6011 46.1113 61.6895 49.023 61.6895 52.6148V111.266C61.6895 114.857 64.6011 117.769 68.1929 117.769Z" stroke="#00359C" stroke-width="2.8" stroke-miterlimit="10" stroke-linecap="round" stroke-linejoin="round"/>
    <path d="M107.219 76.8569C105.379 84.6827 98.3529 90.5093 89.9646 90.5093C80.1771 90.5093 72.2412 82.5733 72.2412 72.7835C72.2412 62.996 80.1771 55.0601 89.9646 55.0601C98.3529 55.0601 105.379 60.8866 107.219 68.7101" stroke="#00359C" stroke-width="2.8" stroke-miterlimit="10" stroke-linecap="round" stroke-linejoin="round"/>
    <path d="M76.0068 83.7103C79.2515 79.5724 84.2976 76.9132 89.9648 76.9132C95.632 76.9132 100.678 79.5722 103.926 83.7103M76.0097 61.8579C79.2515 65.9958 84.2974 68.655 89.9646 68.655C95.6318 68.655 100.678 65.996 103.923 61.8579" stroke="#00359C" stroke-width="2.8" stroke-miterlimit="10" stroke-linecap="round" stroke-linejoin="round"/>
    <path d="M89.966 90.5088C93.9022 90.5088 97.0931 82.5733 97.0931 72.7844C97.0931 62.9955 93.9022 55.0601 89.966 55.0601C86.0298 55.0601 82.8389 62.9955 82.8389 72.7844C82.8389 82.5733 86.0298 90.5088 89.966 90.5088Z" stroke="#00359C" stroke-width="2.8" stroke-miterlimit="10" stroke-linecap="round" stroke-linejoin="round"/>
    <path d="M71.7949 97.5542H108.137M80.1785 104.253H99.753" stroke="#00359C" stroke-width="2.8" stroke-miterlimit="10" stroke-linecap="round" stroke-linejoin="round"/>
    </g>
    <defs>
    <clipPath id="clip0_253_5946">
    <rect width="120" height="120" fill="white"/>
    </clipPath>
    </defs>
</svg>