<svg xmlns="http://www.w3.org/2000/svg" viewBox="0 0 160 160" fill="none" stroke="#00359c">
    <path d="M55.3164 35.5107H27.3408" stroke-width="3" stroke-miterlimit="10" stroke-linecap="round" stroke-linejoin="round"/>
    <path d="M55.3164 54.2617H27.3408" stroke-width="3" stroke-miterlimit="10" stroke-linecap="round" stroke-linejoin="round"/>
    <path d="M55.3164 73.0137H27.3408" stroke-width="3" stroke-miterlimit="10" stroke-linecap="round" stroke-linejoin="round"/>
    <path d="M55.3164 91.7646H27.3408" stroke-width="3" stroke-miterlimit="10" stroke-linecap="round" stroke-linejoin="round"/>
    <path d="M55.3164 110.83H27.3408" stroke-width="3" stroke-miterlimit="10" stroke-linecap="round" stroke-linejoin="round"/>
    <path d="M99.0351 35.5107H71.0596" stroke-width="3" stroke-miterlimit="10" stroke-linecap="round" stroke-linejoin="round"/>
    <path d="M99.0351 54.2617H71.0596" stroke-width="3" stroke-miterlimit="10" stroke-linecap="round" stroke-linejoin="round"/>
    <path d="M84.5333 73.0137H71.0596" stroke-width="3" stroke-miterlimit="10" stroke-linecap="round" stroke-linejoin="round"/>
    <path d="M130.694 111.777L115.827 130.309L104.739 122.275" stroke-width="3" stroke-miterlimit="10" stroke-linecap="round" stroke-linejoin="round"/>
    <path d="M118.335 86.7824C118.129 86.7786 117.923 86.7746 117.716 86.7746C98.8052 86.7746 83.4746 102.117 83.4746 121.044C83.4746 128.781 86.0377 135.918 90.3593 141.654C96.6089 149.949 106.536 155.312 117.716 155.312C136.628 155.312 151.959 139.97 151.959 121.044C151.959 102.324 136.961 87.1124 118.335 86.7824Z" stroke-width="3" stroke-miterlimit="10" stroke-linecap="round" stroke-linejoin="round"/>
    <path d="M118.334 86.7823V18.8787C118.334 11.0412 111.981 4.68782 104.143 4.68782H22.2332C14.3957 4.68782 8.04199 11.0412 8.04199 18.8787V127.463C8.04199 135.301 14.3957 141.654 22.2332 141.654H90.3593" stroke-width="3" stroke-miterlimit="10" stroke-linecap="round" stroke-linejoin="round"/>
</svg>