<svg xmlns="http://www.w3.org/2000/svg" viewBox="0 0 120 120">
    <path d="M39.729 98.4094C39.4014 98.4094 39.0872 98.5396 38.8555 98.7712C38.6239 99.0029 38.4937 99.3171 38.4937 99.6447V111.264C38.4956 112.972 39.1749 114.609 40.3825 115.817C41.5902 117.024 43.2276 117.704 44.9356 117.706H74.3769C76.0849 117.704 77.7223 117.024 78.93 115.817C80.1376 114.609 80.8169 112.972 80.8188 111.264V68.053H83.2368C83.5644 68.053 83.8786 67.9228 84.1103 67.6911C84.3419 67.4595 84.4721 67.1453 84.4721 66.8177V59.7991C84.4705 58.3957 83.9121 57.0502 82.9196 56.0581C81.927 55.0659 80.5814 54.5081 79.178 54.5071H54.609C54.2814 54.5071 53.9672 54.6372 53.7355 54.8689C53.5039 55.1005 53.3737 55.4147 53.3737 55.7424C53.3737 56.07 53.5039 56.3842 53.7355 56.6159C53.9672 56.8475 54.2814 56.9777 54.609 56.9777H79.1797C79.9282 56.9777 80.646 57.2749 81.1755 57.8039C81.705 58.333 82.0027 59.0506 82.0033 59.7991V65.5824H50.415C50.0874 65.5824 49.7732 65.7125 49.5415 65.9442C49.3099 66.1758 49.1797 66.49 49.1797 66.8177C49.1797 67.1453 49.3099 67.4595 49.5415 67.6911C49.7732 67.9228 50.0874 68.053 50.415 68.053H78.3496V74.7941H53.457C52.0416 74.7957 50.6846 75.3587 49.6838 76.3595C48.683 77.3604 48.12 78.7173 48.1184 80.1327V100.805C48.1199 102.221 48.6829 103.578 49.6837 104.579C50.6846 105.579 52.0416 106.142 53.457 106.144H78.3482V111.261C78.3476 112.315 77.9291 113.325 77.1846 114.07C76.44 114.815 75.4302 115.234 74.3769 115.235H44.9356C43.8827 115.234 42.8732 114.815 42.1287 114.071C41.3842 113.326 40.9654 112.316 40.9643 111.264V99.6447C40.9643 99.3171 40.8342 99.0029 40.6025 98.7712C40.3708 98.5396 40.0566 98.4094 39.729 98.4094ZM50.589 100.806V80.1331C50.5899 79.3727 50.8923 78.6437 51.43 78.106C51.9676 77.5683 52.6966 77.2659 53.457 77.2651H78.3482V103.674H53.457C52.6966 103.673 51.9676 103.37 51.43 102.833C50.8923 102.295 50.5899 101.566 50.589 100.806ZM2.73018 108.106C2.73018 108.106 27.0164 117.706 27.1682 117.706C27.4158 117.706 27.6576 117.631 27.8624 117.492C28.0672 117.353 28.2255 117.156 28.3167 116.925L29.9292 112.859C30.3059 111.907 30.2895 110.845 29.8838 109.905C29.478 108.966 28.716 108.225 27.765 107.847L22.629 105.812L25.4423 98.7207L31.8185 101.251C32.5979 101.56 33.468 101.547 34.2377 101.214C35.0073 100.882 35.6134 100.257 35.9225 99.4778L37.0834 96.5519C37.3693 95.8282 37.3786 95.0245 37.1095 94.2944C36.8405 93.5642 36.3118 92.9588 35.6247 92.5937L52.8902 49.0736C53.2599 48.137 53.2657 47.096 52.9064 46.1555C52.5472 45.2149 51.8489 44.4428 50.949 43.9912L53.0945 38.5831C53.3852 37.8539 53.3806 37.0403 53.0819 36.3144C52.7831 35.5885 52.2136 35.0074 51.494 34.694L52.389 32.438C52.518 32.1133 52.5817 31.7663 52.5765 31.4169C52.5713 31.0675 52.4973 30.7226 52.3588 30.4018C52.2202 30.081 52.0198 29.7907 51.769 29.5474C51.5182 29.3041 51.222 29.1125 50.8971 28.9838L49.5418 28.4459L58.2492 6.49402C58.37 6.18947 58.3649 5.84941 58.235 5.54865C58.1051 5.24789 57.861 5.01105 57.5564 4.89026C57.2519 4.76946 56.9118 4.77459 56.6111 4.90452C56.3103 5.03445 56.0735 5.27853 55.9527 5.58308L47.2438 27.536L45.8885 26.9981C45.2326 26.7385 44.5003 26.7498 43.8527 27.0296C43.205 27.3094 42.6949 27.8348 42.4343 28.4904L41.541 30.7453C40.8025 30.4798 39.9896 30.512 39.2745 30.8352C38.5593 31.1583 37.9979 31.7471 37.7091 32.4768L35.5636 37.8839C34.5986 37.5941 33.56 37.6769 32.6531 38.1159C31.7462 38.555 31.0371 39.3183 30.6658 40.255L13.3985 83.7751C12.6478 83.5682 11.8472 83.6459 11.1502 83.9931C10.4532 84.3403 9.90905 84.9327 9.62206 85.6566L8.46124 88.5828C8.15329 89.3623 8.1671 90.2321 8.49966 91.0015C8.83221 91.7708 9.45634 92.3768 10.2351 92.6865L16.6114 95.2164L13.7998 102.307L8.66136 100.271C7.70967 99.8941 6.64751 99.9105 5.70793 100.316C4.76836 100.722 4.0281 101.484 3.64959 102.435L2.03736 106.5C1.97727 106.651 1.94752 106.812 1.94983 106.975C1.95214 107.137 1.98645 107.298 2.0508 107.447C2.11515 107.596 2.20828 107.731 2.32486 107.844C2.44144 107.957 2.57917 108.046 2.73018 108.106ZM44.9776 29.294L49.9844 31.2804C50.0077 31.2895 50.0289 31.3032 50.0468 31.3207C50.0647 31.3381 50.079 31.3589 50.0889 31.3818C50.0987 31.4048 50.1039 31.4295 50.1042 31.4545C50.1044 31.4795 50.0997 31.5043 50.0903 31.5274L49.1974 33.7788L43.8376 31.6517L44.7309 29.4003C44.7401 29.3771 44.7538 29.3559 44.7712 29.3381C44.7886 29.3202 44.8093 29.3059 44.8322 29.296C44.8551 29.2862 44.8798 29.2809 44.9047 29.2806C44.9297 29.2802 44.9544 29.2848 44.9776 29.294ZM40.0036 33.3881C40.0306 33.3201 40.0707 33.2581 40.1216 33.2056C40.1725 33.1531 40.2333 33.1112 40.3005 33.0822C40.3676 33.0532 40.4398 33.0377 40.513 33.0366C40.5861 33.0355 40.6588 33.0488 40.7268 33.0758L50.4867 36.9479C50.6238 37.0024 50.7338 37.1092 50.7923 37.2447C50.8508 37.3803 50.8531 37.5335 50.7987 37.6707L48.6598 43.0623L37.8648 38.7797L40.0036 33.3881ZM32.9607 41.1659C33.036 40.9759 33.148 40.8026 33.2903 40.6559C33.4327 40.5092 33.6025 40.392 33.7902 40.311C33.9778 40.23 34.1796 40.1867 34.384 40.1837C34.5883 40.1807 34.7913 40.218 34.9812 40.2934L49.7211 46.141C50.1047 46.2933 50.4122 46.5917 50.5758 46.9706C50.7394 47.3495 50.7458 47.7779 50.5936 48.1615L48.3665 53.7758L45.4188 52.6065C45.1142 52.4857 44.7742 52.4908 44.4734 52.6208C44.1726 52.7507 43.9358 52.9948 43.815 53.2993C43.6942 53.6039 43.6993 53.9439 43.8293 54.2447C43.9592 54.5455 44.2033 54.7823 44.5078 54.9031L47.4552 56.0724L45.5607 60.847L42.6132 59.6773C42.3087 59.5565 41.9686 59.5616 41.6679 59.6916C41.3671 59.8215 41.1303 60.0656 41.0095 60.3701C40.8887 60.6747 40.8938 61.0147 41.0237 61.3155C41.1537 61.6163 41.3978 61.8531 41.7023 61.9739L44.6497 63.1432L42.7551 67.9192L37.0823 65.6685C36.7778 65.5477 36.4377 65.5528 36.1369 65.6828C35.8362 65.8127 35.5993 66.0568 35.4785 66.3613C35.3577 66.6659 35.3629 67.0059 35.4928 67.3067C35.6227 67.6074 35.8668 67.8443 36.1714 67.9651L41.8438 70.2154L39.9492 74.9911L37.0018 73.8218C36.6981 73.7049 36.3606 73.7125 36.0625 73.8431C35.7644 73.9736 35.5299 74.2165 35.4099 74.5189C35.2898 74.8214 35.294 75.159 35.4214 75.4584C35.5489 75.7578 35.7893 75.9949 36.0905 76.118L39.0383 77.2877L37.1437 82.0633L34.1963 80.894C34.0455 80.8342 33.8844 80.8046 33.7222 80.8071C33.56 80.8095 33.3998 80.8438 33.2509 80.9082C33.1019 80.9725 32.9671 81.0655 32.8541 81.1819C32.7411 81.2983 32.6522 81.4359 32.5924 81.5867C32.5325 81.7375 32.503 81.8986 32.5054 82.0608C32.5078 82.223 32.5422 82.3831 32.6065 82.5321C32.6708 82.681 32.7638 82.8158 32.8803 82.9288C32.9967 83.0418 33.1342 83.1308 33.285 83.1906L36.2324 84.3603L33.3355 91.6623L15.7025 84.667L32.9607 41.1659ZM10.7607 89.4934L11.9215 86.5675C11.9547 86.4831 12.0042 86.406 12.0673 86.3407C12.1304 86.2754 12.2058 86.2233 12.2891 86.1872C12.3724 86.1511 12.462 86.1319 12.5527 86.1305C12.6435 86.1292 12.7336 86.1457 12.8179 86.1793L34.4014 94.7417C34.5717 94.8092 34.7083 94.9416 34.7811 95.1097C34.8539 95.2779 34.8569 95.4681 34.7896 95.6385L33.6288 98.5644C33.5954 98.6487 33.5458 98.7257 33.4826 98.7909C33.4195 98.856 33.3442 98.9081 33.261 98.9442C33.1777 98.9802 33.0882 98.9995 32.9975 99.001C32.9068 99.0024 32.8167 98.986 32.7323 98.9526L11.1461 90.3899C10.976 90.3222 10.8397 90.1898 10.7672 90.0217C10.6946 89.8536 10.6916 89.6637 10.7589 89.4934H10.7607ZM18.9097 96.1287L23.1475 97.8101L20.3345 104.901L16.0939 103.218L18.9097 96.1287ZM5.94759 103.344C6.08356 103.002 6.34976 102.728 6.68775 102.582C7.02575 102.435 7.40793 102.429 7.75041 102.565L26.8551 110.144C27.1972 110.28 27.4712 110.546 27.6172 110.884C27.7631 111.222 27.7691 111.604 27.6337 111.947L26.4757 114.866L4.78924 106.263L5.94759 103.344Z" fill="#00359C"/>
    <path d="M72.9785 86.1283H69.3203V82.4701C69.3203 82.1424 69.1901 81.8282 68.9585 81.5966C68.7268 81.3649 68.4126 81.2348 68.085 81.2348H61.5203C61.1927 81.2348 60.8785 81.3649 60.6468 81.5966C60.4151 81.8282 60.285 82.1424 60.285 82.4701V86.1283H56.6264C56.2988 86.1283 55.9846 86.2584 55.7529 86.4901C55.5213 86.7218 55.3911 87.036 55.3911 87.3636V93.9283C55.3911 94.2559 55.5213 94.5701 55.7529 94.8018C55.9846 95.0335 56.2988 95.1636 56.6264 95.1636H60.2846V98.8236C60.2846 99.1512 60.4148 99.4654 60.6465 99.6971C60.8781 99.9287 61.1923 100.059 61.5199 100.059H68.0846C68.4123 100.059 68.7265 99.9287 68.9581 99.6971C69.1898 99.4654 69.3199 99.1512 69.3199 98.8236V95.1636H72.9782C73.3058 95.1636 73.62 95.0335 73.8517 94.8018C74.0833 94.5701 74.2135 94.2559 74.2135 93.9283V87.3636C74.2135 87.036 74.0834 86.7219 73.8518 86.4902C73.6202 86.2586 73.3061 86.1284 72.9785 86.1283ZM71.7432 92.693H68.085C67.7574 92.693 67.4432 92.8232 67.2115 93.0548C66.9798 93.2865 66.8497 93.6007 66.8497 93.9283V97.5883H62.7556V93.9283C62.7556 93.6007 62.6254 93.2865 62.3938 93.0548C62.1621 92.8232 61.8479 92.693 61.5203 92.693H57.8617V88.5989H61.5199C61.8476 88.5989 62.1618 88.4687 62.3934 88.2371C62.6251 88.0054 62.7552 87.6912 62.7552 87.3636V83.7054H66.8493V87.3636C66.8493 87.6912 66.9795 88.0054 67.2112 88.2371C67.4428 88.4687 67.757 88.5989 68.0846 88.5989H71.7429L71.7432 92.693ZM111.035 103.674H93.0503C92.1289 103.674 91.2166 103.855 90.3653 104.208C89.5141 104.56 88.7407 105.077 88.0891 105.729C87.4376 106.38 86.9208 107.154 86.5682 108.005C86.2156 108.856 86.0342 109.768 86.0342 110.69C86.0342 111.611 86.2156 112.524 86.5682 113.375C86.9208 114.226 87.4376 114.999 88.0891 115.651C88.7407 116.302 89.5141 116.819 90.3653 117.172C91.2166 117.524 92.1289 117.706 93.0503 117.706H111.035C112.896 117.706 114.68 116.967 115.996 115.651C117.312 114.335 118.051 112.551 118.051 110.69C118.051 108.829 117.312 107.044 115.996 105.729C114.68 104.413 112.896 103.674 111.035 103.674ZM88.5065 110.69C88.5079 109.485 88.9873 108.329 89.8394 107.477C90.6916 106.625 91.8469 106.146 93.0521 106.144H100.808V115.235H93.0503C91.8452 115.234 90.6898 114.755 89.8377 113.902C88.9855 113.05 88.5062 111.895 88.5048 110.69H88.5065ZM111.035 115.235H103.277V106.144H111.035C112.241 106.144 113.397 106.623 114.249 107.476C115.102 108.328 115.581 109.484 115.581 110.69C115.581 111.895 115.102 113.052 114.249 113.904C113.397 114.756 112.241 115.235 111.035 115.235ZM91.4448 87.5934C91.9521 88.5147 92.5773 89.3661 93.3044 90.1261C93.3125 90.1345 93.3178 90.1448 93.3256 90.1532C95.1703 92.0687 97.5947 93.3231 100.224 93.7222C102.853 94.1214 105.541 93.6431 107.871 92.3614C110.201 91.0797 112.044 89.0659 113.114 86.6316C114.185 84.1973 114.424 81.478 113.793 78.8944C113.791 78.8835 113.785 78.8739 113.782 78.8634C113.276 76.8108 112.24 74.9272 110.777 73.4009C110.77 73.3928 110.765 73.3832 110.758 73.3755C108.913 71.46 106.489 70.2056 103.859 69.8065C101.23 69.4074 98.5427 69.8856 96.2126 71.1673C93.8825 72.4491 92.0396 74.4628 90.9691 76.8971C89.8985 79.3315 89.6598 82.0507 90.2899 84.6343C90.2935 84.6488 90.2998 84.6615 90.3037 84.6756C90.5562 85.6935 90.9398 86.6742 91.4448 87.5934ZM106.68 90.1967C105.073 91.078 103.249 91.4834 101.42 91.3653C99.5918 91.2473 97.8347 90.6106 96.3549 89.5299L111.645 81.119C111.766 82.9475 111.363 84.7725 110.483 86.3802C109.604 87.9879 108.284 89.3117 106.68 90.1967ZM94.4931 87.7342C93.9051 86.8479 93.3915 85.9143 92.9578 84.9431L109.59 75.7945C110.178 76.6806 110.692 77.6141 111.125 78.5852L94.4931 87.7342ZM97.4035 73.3317C99.01 72.4503 100.834 72.0449 102.663 72.1631C104.492 72.2812 106.249 72.918 107.728 73.9988L92.4379 82.4094C92.3176 80.5808 92.7207 78.7559 93.6001 77.1482C94.4796 75.5405 95.7988 74.2167 97.4035 73.3317Z" fill="#00359C"/>
</svg>