<svg xmlns="http://www.w3.org/2000/svg" viewBox="0 0 120 120" fill="none">
    <path d="M53.8051 10.5429L53.7208 11.0342C53.5955 11.759 53.6758 12.5044 53.9526 13.1859C54.2293 13.8674 54.6914 14.4578 55.2865 14.8901C55.8816 15.3225 56.5859 15.5794 57.3196 15.632C58.0533 15.6845 58.787 15.5305 59.4376 15.1873L59.8783 14.9557L60.3198 15.1873C60.9706 15.5311 61.7048 15.6857 62.439 15.6333C63.1732 15.581 63.878 15.3239 64.4735 14.8913C65.069 14.4586 65.5313 13.8677 65.8079 13.1856C66.0846 12.5035 66.1645 11.7575 66.0386 11.0323L65.9542 10.5411L66.3114 10.1932C66.8392 9.6805 67.2128 9.03008 67.3898 8.31579C67.5667 7.6015 67.54 6.85191 67.3125 6.15205C67.0851 5.45219 66.6661 4.83007 66.103 4.35625C65.54 3.88244 64.8554 3.57589 64.127 3.47137L63.6339 3.40012L63.4136 2.95294C63.0891 2.29224 62.586 1.73571 61.9613 1.3465C61.3366 0.957289 60.6152 0.750977 59.8792 0.750977C59.1431 0.750977 58.4218 0.957289 57.7971 1.3465C57.1724 1.73571 56.6693 2.29224 56.3448 2.95294L56.1245 3.40012L55.6314 3.47137C54.903 3.57589 54.2184 3.88244 53.6553 4.35625C53.0923 4.83007 52.6733 5.45219 52.4459 6.15205C52.2184 6.85191 52.1917 7.6015 52.3686 8.31579C52.5456 9.03008 52.9192 9.6805 53.447 10.1932L53.8051 10.5429ZM56.0364 6.25669L57.4061 6.05794C57.5872 6.03182 57.7593 5.9619 57.9073 5.85424C58.0553 5.74657 58.1748 5.60443 58.2554 5.44012L58.8686 4.19887C58.9608 4.00892 59.1046 3.84876 59.2836 3.7367C59.4626 3.62464 59.6694 3.56522 59.8806 3.56522C60.0918 3.56522 60.2987 3.62464 60.4776 3.7367C60.6566 3.84876 60.8004 4.00892 60.8926 4.19887L61.5048 5.43731C61.5855 5.60161 61.705 5.74376 61.853 5.85142C62.001 5.95908 62.173 6.02901 62.3542 6.05512L63.7239 6.25387C63.933 6.28295 64.1296 6.37027 64.2914 6.50584C64.4532 6.64141 64.5736 6.81977 64.6389 7.02053C64.7041 7.22129 64.7115 7.43635 64.6603 7.64113C64.6091 7.84591 64.5013 8.03215 64.3492 8.17856L63.3583 9.14419C63.2269 9.27179 63.1288 9.42952 63.0722 9.60368C63.0157 9.77784 63.0025 9.96316 63.0339 10.1436L63.2673 11.5076C63.3043 11.7154 63.282 11.9294 63.2031 12.1252C63.1242 12.3209 62.9918 12.4905 62.8211 12.6146C62.6504 12.7387 62.4482 12.8122 62.2376 12.8269C62.0271 12.8415 61.8167 12.7966 61.6304 12.6973L60.4051 12.0532C60.2433 11.9679 60.0631 11.9232 59.8801 11.9232C59.6972 11.9232 59.517 11.9679 59.3551 12.0532L58.1308 12.6973C57.9445 12.7969 57.734 12.842 57.5233 12.8275C57.3126 12.813 57.1102 12.7395 56.9393 12.6153C56.7684 12.4912 56.6359 12.3215 56.557 12.1256C56.4781 11.9297 56.4559 11.7155 56.4929 11.5076L56.7264 10.1436C56.7577 9.96316 56.7446 9.77784 56.688 9.60368C56.6315 9.42952 56.5333 9.27179 56.402 9.14419L55.4111 8.17856C55.2598 8.03204 55.1528 7.84601 55.102 7.64164C55.0513 7.43727 55.059 7.22277 55.1241 7.02253C55.1893 6.82229 55.3093 6.64436 55.4706 6.50897C55.6319 6.37358 55.8279 6.28617 56.0364 6.25669ZM95.9739 91.6873C94.7622 90.5463 93.629 89.3248 92.582 88.0311C91.7568 86.8334 91.1471 85.5009 90.7801 84.0936C90.5239 83.3048 90.246 82.5233 89.9467 81.7498C90.8446 81.0561 91.5745 80.1688 92.0822 79.154C92.5899 78.1393 92.8623 77.0231 92.8792 75.8886C92.8143 74.9811 92.4956 74.1102 91.9595 73.3752C91.4234 72.6402 90.6915 72.0707 89.8473 71.7317C89.0684 71.2867 88.3964 70.6764 87.8786 69.9439C87.8945 69.7732 87.9048 69.6008 87.9048 69.4254C87.9035 68.3222 87.5747 67.2442 86.96 66.328C86.3453 65.4119 85.4724 64.6989 84.452 64.2795C84.0583 63.5295 83.6729 62.7795 83.3083 62.0567C82.4223 60.3092 81.5711 58.6357 80.7283 57.2117C81.4807 56.9788 82.1552 56.5448 82.6791 55.9566C83.203 55.3685 83.5564 54.6484 83.7011 53.8742C83.8059 52.7951 83.5522 51.7115 82.9793 50.7911C82.4063 49.8707 81.5459 49.1648 80.5314 48.7826C79.3231 48.2617 78.2529 47.4663 77.4058 46.4595C77.8078 45.6893 78.0235 44.8354 78.0354 43.9667C78.0472 43.0979 77.855 42.2385 77.4742 41.4576C77.0934 40.6767 76.5345 39.996 75.8427 39.4705C75.1508 38.9449 74.3452 38.5891 73.4908 38.4317C73.7177 38.2116 73.9219 37.9691 74.1001 37.7079C75.1923 36.0682 75.2908 33.4892 72.2645 31.1454C69.1454 28.8439 67.6595 25.6836 66.3479 22.8954C64.7467 19.4895 63.2345 16.272 59.2145 16.272C56.9401 16.272 55.5583 18.0861 54.3264 20.3811C54.1961 20.3717 54.0676 20.3614 53.9354 20.3614C52.9492 20.3597 51.9803 20.6206 51.1283 21.1174C50.2764 21.6142 49.5721 22.3289 49.0878 23.188C48.6035 24.0472 48.3568 25.0198 48.3729 26.0059C48.389 26.992 48.6674 27.956 49.1795 28.7989C48.7774 29.1792 48.3344 29.5137 47.8586 29.7964C47.0809 30.1845 46.4553 30.8216 46.0816 31.6063C45.7078 32.3911 45.6073 33.2782 45.7961 34.1267C45.9329 34.6358 46.1732 35.1112 46.5019 35.5233C46.8307 35.9354 47.2408 36.2754 47.7067 36.522C46.3901 38.5754 45.2435 40.7329 44.2783 42.9729L44.2661 43.0011C44.1358 42.9917 44.0054 42.9804 43.8733 42.9804C42.9191 42.9786 41.9805 43.2226 41.1481 43.6889C40.3156 44.1552 39.6173 44.8281 39.1205 45.6427C38.6236 46.4573 38.345 47.3862 38.3114 48.3398C38.2779 49.2933 38.4905 50.2395 38.9289 51.087C38.507 51.4001 38.0748 51.6954 37.6408 51.9786C35.6542 53.2789 33.1801 54.8961 34.4608 58.1933C34.7118 58.7847 35.0806 59.3188 35.5448 59.763C36.009 60.2073 36.5588 60.5523 37.1608 60.777C35.9139 63.5836 34.0922 66.0974 31.8133 68.1561L31.532 68.3848C29.1986 70.2664 26.7854 72.2107 26.7179 74.6895C26.7253 75.3643 26.884 76.0288 27.1822 76.6341C27.4804 77.2395 27.9106 77.7702 28.4411 78.1873C29.447 79.0512 30.6819 79.6048 31.9961 79.7811C31.8695 80.0839 31.7279 80.4111 31.5826 80.7429C30.6446 80.7975 29.7358 81.0892 28.9411 81.5906C28.1465 82.092 27.492 82.7868 27.039 83.61C26.586 84.4332 26.3492 85.3579 26.3507 86.2975C26.3523 87.2371 26.5922 88.1609 27.0479 88.9826C26.3622 89.9924 25.4885 90.8606 24.4745 91.5401C22.232 92.8376 20.9626 94.6939 20.9917 96.6326C21.0133 98.0529 21.7576 100.134 25.1889 101.986C29.9983 104.61 35.0609 106.742 40.2995 108.347C41.0663 109.582 42.2887 110.466 43.7021 110.807C45.1156 111.148 46.6064 110.918 47.852 110.168C49.8308 110.53 51.8139 110.8 53.8014 110.979L53.9486 114.221C54.0324 115.348 54.5257 116.405 55.3352 117.194C56.1448 117.982 57.2148 118.447 58.3436 118.501C58.8642 118.546 59.3589 118.569 59.8276 118.569C61.5859 118.705 63.3322 118.185 64.7298 117.109C65.1578 116.722 65.4991 116.248 65.7313 115.72C65.9635 115.191 66.0813 114.619 66.077 114.042L66.1164 110.913C71.2449 110.396 76.3053 109.343 81.2148 107.773C82.9902 107.213 84.7534 106.615 86.5033 105.98C87.2766 106.455 88.1546 106.733 89.0603 106.79C89.9661 106.846 90.8719 106.68 91.6983 106.305C92.5247 105.93 93.2465 105.358 93.8003 104.639C94.3542 103.92 94.7233 103.076 94.8751 102.182C97.7533 100.385 99.017 98.5995 99.0086 96.5998C99.0001 94.6386 97.6651 93.3364 95.9739 91.6873ZM85.0914 69.4226C85.0916 69.9671 84.9303 70.4994 84.6279 70.9522C84.3255 71.405 83.8956 71.7579 83.3927 71.9664C82.8897 72.1748 82.3361 72.2294 81.8021 72.1232C81.2681 72.017 80.7776 71.7549 80.3926 71.3699C80.0076 70.9849 79.7454 70.4943 79.6392 69.9603C79.533 69.4263 79.5876 68.8728 79.7961 68.3698C80.0045 67.8668 80.3575 67.4369 80.8103 67.1346C81.2631 66.8322 81.7953 66.6709 82.3398 66.6711C83.0693 66.6721 83.7686 66.9623 84.2844 67.4781C84.8002 67.9939 85.0904 68.6932 85.0914 69.4226ZM72.4736 41.1457C73.018 41.1456 73.5503 41.3068 74.003 41.6092C74.4558 41.9115 74.8087 42.3413 75.0172 42.8443C75.2257 43.3472 75.2803 43.9007 75.1742 44.4347C75.0681 44.9687 74.8061 45.4592 74.4211 45.8442C74.0362 46.2293 73.5458 46.4915 73.0118 46.5978C72.4779 46.7041 71.9244 46.6496 71.4214 46.4413C70.9184 46.233 70.4884 45.8802 70.186 45.4276C69.8835 44.9749 69.722 44.4427 69.722 43.8983C69.7228 43.1686 70.0129 42.4691 70.5287 41.9531C71.0445 41.4371 71.744 41.1467 72.4736 41.1457ZM53.9383 23.1692C54.4828 23.1688 55.0152 23.33 55.4681 23.6322C55.921 23.9345 56.2741 24.3643 56.4827 24.8673C56.6913 25.3702 56.746 25.9238 56.6399 26.4579C56.5338 26.9919 56.2717 27.4826 55.8868 27.8677C55.5018 28.2528 55.0113 28.515 54.4772 28.6213C53.9432 28.7275 53.3896 28.673 52.8866 28.4646C52.3835 28.2562 51.9536 27.9032 51.6512 27.4504C51.3488 26.9976 51.1874 26.4653 51.1876 25.9207C51.1886 25.1915 51.4787 24.4923 51.9943 23.9765C52.5099 23.4608 53.209 23.1704 53.9383 23.1692ZM49.262 32.2311C49.967 31.8219 50.6201 31.3293 51.2073 30.7639C52.4611 31.4852 53.9467 31.6895 55.3487 31.3335C56.7507 30.9775 57.9588 30.0891 58.7165 28.8569C59.4742 27.6247 59.722 26.1458 59.4071 24.734C59.0922 23.3221 58.2396 22.0886 57.0301 21.2951C57.7511 20.007 58.4673 19.077 59.2173 19.077C61.352 19.077 62.2586 20.7945 63.8111 24.0851C65.1911 27.0223 66.9104 30.6786 70.5751 33.3823C71.3251 33.9608 72.4698 35.0904 71.7667 36.1461C70.7533 37.6629 66.3676 38.9061 61.2189 35.9839C59.2041 34.7178 56.8877 34.0132 54.5092 33.9429C53.6596 33.956 52.8127 34.0426 51.9779 34.2017C51.4355 34.3099 50.8847 34.3701 50.3317 34.3817H50.3195C49.1664 34.3517 48.632 33.8511 48.5251 33.4311C48.4183 33.0111 48.6929 32.5583 49.262 32.2311ZM43.8751 45.7892C44.4195 45.7892 44.9517 45.9506 45.4043 46.2531C45.857 46.5555 46.2098 46.9854 46.4181 47.4883C46.6264 47.9913 46.681 48.5447 46.5747 49.0787C46.4685 49.6126 46.2064 50.1031 45.8214 50.488C45.4365 50.8729 44.9461 51.1351 44.4121 51.2413C43.8782 51.3475 43.3248 51.293 42.8218 51.0847C42.3188 50.8763 41.889 50.5235 41.5865 50.0709C41.2841 49.6182 41.1226 49.0861 41.1226 48.5417C41.1234 47.8119 41.4136 47.1122 41.9296 46.5962C42.4457 46.0802 43.1454 45.7899 43.8751 45.7892ZM37.0867 57.1714C36.6901 56.1523 36.9648 55.7811 39.1839 54.3289C39.7437 53.9674 40.2912 53.5872 40.8254 53.1889C42.0562 53.9754 43.5471 54.246 44.9757 53.9423C46.4044 53.6386 47.6563 52.7849 48.4607 51.5657C49.2651 50.3466 49.5574 48.8598 49.2746 47.4269C48.9918 45.9939 48.1565 44.7297 46.9492 43.9076C48.1679 41.3145 49.6201 38.247 50.7873 37.1867C51.3425 37.1493 51.8951 37.0791 52.442 36.9767C54.2739 36.6711 56.1648 36.3551 59.8314 38.4326C62.1331 39.7754 64.7419 40.5025 67.4064 40.5439C67.6333 40.5439 67.8498 40.5261 68.0701 40.5139C67.2677 41.5537 66.8596 42.8442 66.9183 44.1563C66.977 45.4685 67.4987 46.7174 68.3908 47.6814C69.2829 48.6454 70.4877 49.2622 71.7913 49.4222C73.095 49.5823 74.4132 49.2753 75.512 48.5557C76.5927 49.767 77.9268 50.7257 79.4195 51.3636C79.8574 51.5083 80.2385 51.7874 80.5087 52.1612C80.7788 52.5351 80.9242 52.9845 80.9242 53.4457C80.8079 54.2023 79.8386 54.7498 78.3311 54.9101C76.6693 55.0421 74.9971 54.921 73.3717 54.5511C70.4166 53.8807 67.345 53.9166 64.4064 54.6561C63.761 53.7014 62.8349 52.9709 61.7562 52.5655C60.6775 52.1602 59.4995 52.1001 58.3851 52.3935C57.2708 52.6869 56.2751 53.3193 55.5359 54.2034C54.7967 55.0874 54.3504 56.1792 54.2589 57.3279C46.8751 58.9826 41.9139 59.2404 39.2814 58.5936C39.2476 58.5823 39.2139 58.5748 39.1792 58.5664C38.0214 58.2636 37.3248 57.7854 37.0867 57.1714ZM62.5529 57.7761C62.5529 58.3205 62.3915 58.8526 62.0891 59.3053C61.7866 59.7579 61.3567 60.1107 60.8538 60.319C60.3508 60.5274 59.7974 60.5819 59.2635 60.4757C58.7295 60.3695 58.2391 60.1073 57.8541 59.7224C57.4692 59.3374 57.207 58.847 57.1008 58.313C56.9946 57.7791 57.0491 57.2257 57.2575 56.7227C57.4658 56.2198 57.8186 55.7899 58.2712 55.4874C58.7239 55.185 59.2561 55.0236 59.8004 55.0236C60.5303 55.0241 61.2301 55.3142 61.7462 55.8303C62.2623 56.3464 62.5524 57.0462 62.5529 57.7761ZM30.3226 76.1004C30.1041 75.9467 29.9202 75.7488 29.7831 75.5194C29.646 75.2901 29.5586 75.0345 29.5267 74.7692C29.5586 73.5889 31.6304 71.9183 33.2945 70.5767L33.5758 70.347C36.3159 67.917 38.4698 64.8976 39.8758 61.5157C40.8608 61.6513 41.8543 61.7161 42.8486 61.7098C46.861 61.5921 50.85 61.0538 54.7501 60.1039C55.2807 61.2557 56.1889 62.1917 57.3244 62.7566C58.4598 63.3214 59.7542 63.4812 60.9929 63.2095C62.2316 62.9378 63.3403 62.2509 64.135 61.2627C64.9298 60.2744 65.3629 59.0442 65.3626 57.7761C65.3626 57.6195 65.3514 57.4657 65.3392 57.3129C67.8149 56.7324 70.3916 56.7343 72.8664 57.3186C74.4738 57.6563 76.1156 57.802 77.7573 57.7526C78.7145 59.2207 79.7261 61.2214 80.7967 63.3251L81.1361 63.9926C80.2642 64.1839 79.4512 64.5823 78.7658 65.1539C78.0803 65.7256 77.5425 66.4539 77.1977 67.2772C76.8529 68.1005 76.7114 68.9947 76.785 69.8842C76.8586 70.7737 77.1452 71.6325 77.6206 72.388C78.096 73.1434 78.7462 73.7734 79.5163 74.2246C80.2864 74.6758 81.1538 74.9351 82.0452 74.9805C82.9366 75.0259 83.8259 74.8562 84.6379 74.4855C85.4499 74.1149 86.1607 73.5543 86.7104 72.8511C87.2706 73.432 87.9256 73.9132 88.6473 74.2742C89.0299 74.401 89.3675 74.6358 89.6197 74.9502C89.8719 75.2645 90.0278 75.6451 90.0686 76.0461C90.1436 77.3586 89.0073 79.1295 87.4801 80.0773C82.7702 82.8874 77.4424 84.4983 71.9645 84.7686C71.6509 83.6608 71.0012 82.6776 70.105 81.9548C69.2089 81.2319 68.1105 80.805 66.9614 80.733C65.8123 80.661 64.6692 80.9474 63.6898 81.5527C62.7104 82.158 61.943 83.0523 61.4936 84.1123C57.302 83.3407 53.2406 81.9803 49.4298 80.0717C44.2248 77.4542 39.7333 77.3436 36.1239 77.2592C33.5298 77.1926 31.4814 77.142 30.3226 76.1004ZM69.3676 86.2873C69.3669 86.8316 69.2048 87.3634 68.9019 87.8156C68.5989 88.2678 68.1687 88.62 67.6657 88.8277C67.1626 89.0354 66.6092 89.0894 66.0755 88.9827C65.5418 88.8759 65.0517 88.6134 64.6672 88.2282C64.2826 87.843 64.0209 87.3525 63.9151 86.8186C63.8093 86.2847 63.8642 85.7314 64.0728 85.2287C64.2814 84.726 64.6343 84.2964 65.087 83.9942C65.5397 83.6921 66.0718 83.5309 66.6161 83.5311C67.3463 83.5321 68.0463 83.8229 68.5623 84.3397C69.0782 84.8565 69.3679 85.557 69.3676 86.2873ZM31.9145 83.5311C32.4589 83.5309 32.9912 83.6921 33.444 83.9945C33.8967 84.2968 34.2497 84.7266 34.4582 85.2296C34.6666 85.7325 34.7213 86.286 34.6152 86.82C34.5091 87.354 34.247 87.8445 33.8621 88.2295C33.4772 88.6146 32.9867 88.8768 32.4528 88.9831C31.9188 89.0894 31.3653 89.0349 30.8623 88.8266C30.3593 88.6183 29.9294 88.2655 29.6269 87.8129C29.3244 87.3602 29.1629 86.828 29.1629 86.2836C29.1637 85.5539 29.4538 84.8544 29.9696 84.3384C30.4855 83.8224 31.1849 83.5321 31.9145 83.5311ZM45.0076 108.14C44.4632 108.14 43.9309 107.978 43.4782 107.676C43.0254 107.374 42.6725 106.944 42.464 106.441C42.2555 105.938 42.2009 105.385 42.307 104.851C42.4131 104.317 42.6751 103.826 43.0601 103.441C43.445 103.056 43.9354 102.794 44.4694 102.687C45.0033 102.581 45.5568 102.636 46.0598 102.844C46.5628 103.052 46.9928 103.405 47.2952 103.858C47.5977 104.31 47.7592 104.843 47.7592 105.387C47.7594 106.117 47.4698 106.818 46.9538 107.335C46.4379 107.851 45.7379 108.142 45.0076 108.143V108.14ZM63.2645 113.999C63.2745 114.189 63.2418 114.379 63.1688 114.555C63.0958 114.731 62.9843 114.889 62.8426 115.016C62.4498 115.373 61.3745 115.934 58.5883 115.692C58.1397 115.691 57.7067 115.528 57.37 115.231C57.0333 114.935 56.8158 114.526 56.7583 114.081L56.6251 111.163C57.6208 111.208 58.6173 111.24 59.6148 111.24C60.8411 111.24 62.0701 111.192 63.3011 111.124L63.2645 113.999ZM89.3964 103.981C88.852 103.981 88.3198 103.819 87.8672 103.517C87.4145 103.214 87.0617 102.785 86.8534 102.282C86.6451 101.779 86.5906 101.225 86.6968 100.691C86.803 100.157 87.0651 99.6669 87.4501 99.2819C87.835 98.897 88.3255 98.6348 88.8594 98.5286C89.3933 98.4224 89.9468 98.4769 90.4497 98.6853C90.9527 98.8936 91.3826 99.2464 91.685 99.699C91.9874 100.152 92.1489 100.684 92.1489 101.228C92.1491 101.959 91.8593 102.659 91.3432 103.176C90.8271 103.693 90.1268 103.984 89.3964 103.984V103.981ZM94.5086 99.0336C94.2153 98.3479 93.787 97.7282 93.2494 97.2114C92.7117 96.6946 92.0756 96.2912 91.3789 96.0252C90.6821 95.7593 89.939 95.6361 89.1937 95.6632C88.4484 95.6903 87.7162 95.8669 87.0406 96.1827C86.365 96.4985 85.7598 96.947 85.261 97.5014C84.7623 98.0558 84.3801 98.7049 84.1373 99.4101C83.8945 100.115 83.7959 100.862 83.8476 101.606C83.8992 102.35 84.1 103.076 84.4379 103.741C83.0875 104.209 81.7302 104.656 80.3664 105.083C70.6127 108.297 60.2415 109.179 50.0851 107.659C50.4082 106.945 50.5754 106.171 50.5754 105.387C50.5808 103.934 50.017 102.536 49.0049 101.494C47.9928 100.451 46.6127 99.8461 45.1601 99.8082C43.7074 99.7703 42.2977 100.303 41.2326 101.291C40.1675 102.28 39.5318 103.646 39.4614 105.097C34.9905 103.623 30.6607 101.751 26.5239 99.5042C24.7839 98.5667 23.8173 97.527 23.8051 96.5839C23.792 95.7195 24.5889 94.7173 25.8845 93.9673C27.0996 93.1865 28.1594 92.1871 29.0101 91.0198C29.6493 91.4171 30.3624 91.6804 31.1064 91.7939C31.8503 91.9073 32.6095 91.8685 33.338 91.6797C34.0665 91.491 34.7491 91.1562 35.3443 90.6958C35.9396 90.2354 36.4351 89.6589 36.8009 89.0012C37.1667 88.3435 37.3951 87.6184 37.4723 86.8699C37.5495 86.1213 37.4738 85.3648 37.2499 84.6464C37.026 83.9279 36.6585 83.2624 36.1697 82.6902C35.6809 82.118 35.081 81.651 34.4064 81.3176C34.6126 80.8292 34.7926 80.3914 34.9342 80.037C35.3017 80.0492 35.6767 80.0586 36.0592 80.0679C39.3873 80.1495 43.5283 80.2508 48.1698 82.5851C52.2484 84.6323 56.5982 86.0873 61.0876 86.9061C61.2311 88.2089 61.8304 89.4192 62.7795 90.3231C63.7286 91.2271 64.9666 91.7666 66.2749 91.8465C67.5832 91.9263 68.8776 91.5413 69.9297 90.7595C70.9817 89.9777 71.7236 88.8493 72.0245 87.5736C77.4424 87.2957 82.7331 85.8309 87.5223 83.2826C87.7361 83.8611 87.9273 84.4273 88.1111 84.9814C88.5705 86.7061 89.3392 88.3331 90.3798 89.7832C91.5013 91.17 92.7143 92.4801 94.0108 93.7048C95.4451 95.1026 96.1933 95.8667 96.1961 96.6111C96.1998 97.4126 95.5464 98.2339 94.5086 99.0373V99.0336Z" fill="#00359C"/>
</svg>