<svg xmlns="http://www.w3.org/2000/svg" viewBox="0 0 120 120" fill="none">
    <path d="M26.1969 60.165H20.0576" stroke="#00359C" stroke-width="2.29235" stroke-miterlimit="10" stroke-linecap="round" stroke-linejoin="round"/>
    <path d="M50.1329 60.165H35.752" stroke="#00359C" stroke-width="2.29235" stroke-miterlimit="10" stroke-linecap="round" stroke-linejoin="round"/>
    <path d="M33.9615 43.9932H20.0576" stroke="#00359C" stroke-width="2.29235" stroke-miterlimit="10" stroke-linecap="round" stroke-linejoin="round"/>
    <path d="M11.971 60.165H6.5957V43.9931H11.971" stroke="#00359C" stroke-width="2.29235" stroke-miterlimit="10" stroke-linecap="round" stroke-linejoin="round"/>
    <path d="M60.4873 43.9923H65.8626V53.0225" stroke="#00359C" stroke-width="2.29235" stroke-miterlimit="10" stroke-linecap="round" stroke-linejoin="round"/>
    <path d="M11.971 27.7041H6.5957V11.5321H65.8625V22.3794" stroke="#00359C" stroke-width="2.29235" stroke-miterlimit="10" stroke-linecap="round" stroke-linejoin="round"/>
    <path d="M52.4018 27.7041H20.0576" stroke="#00359C" stroke-width="2.29235" stroke-miterlimit="10" stroke-linecap="round" stroke-linejoin="round"/>
    <path d="M60.4873 81.6006V70.5187" stroke="#00359C" stroke-width="2.29235" stroke-miterlimit="10" stroke-linecap="round" stroke-linejoin="round"/>
    <path d="M52.4014 87.2812V62.4329" stroke="#00359C" stroke-width="2.29235" stroke-miterlimit="10" stroke-linecap="round" stroke-linejoin="round"/>
    <path d="M60.4883 47.6484V35.085" stroke="#00359C" stroke-width="2.29235" stroke-miterlimit="10" stroke-linecap="round" stroke-linejoin="round"/>
    <path d="M60.4883 25.4445V11.5314H52.4014V30.9482" stroke="#00359C" stroke-width="2.29235" stroke-miterlimit="10" stroke-linecap="round" stroke-linejoin="round"/>
    <path d="M11.9707 65.0211V11.5308H20.0577V72.2656" stroke="#00359C" stroke-width="2.29235" stroke-miterlimit="10" stroke-linecap="round" stroke-linejoin="round"/>
    <path d="M11.9707 82.9297V71.4687" stroke="#00359C" stroke-width="2.29235" stroke-miterlimit="10" stroke-linecap="round" stroke-linejoin="round"/>
    <path d="M75.3393 26.7454C75.911 26.4897 76.4848 26.2404 77.0629 25.9954C88.5819 21.1235 100.81 18.652 113.404 18.652V10.5651C99.7205 10.5651 86.435 13.2514 73.9145 18.5467C61.8324 23.6572 50.9861 30.9684 41.6785 40.276C32.3708 49.5836 25.0619 60.4278 19.9514 72.5099C14.6561 85.0303 11.9697 98.3159 11.9697 111.999H20.0567C20.0567 99.4055 22.526 87.1773 27.3979 75.6604C32.1022 64.5411 38.8288 54.5608 47.3971 45.9925C53.9862 39.4035 61.4112 33.9018 69.5476 29.5779" stroke="#00359C" stroke-width="2.29235" stroke-miterlimit="10" stroke-linecap="round" stroke-linejoin="round"/>
    <path d="M60.4875 112H52.4014C52.4014 95.7055 58.7467 80.3863 70.2687 68.8643C81.7907 57.3423 97.11 50.9969 113.404 50.9969V59.083C99.27 59.083 85.9812 64.5872 75.9865 74.5819C65.9917 84.5768 60.4875 97.8654 60.4875 112Z" stroke="#00359C" stroke-width="2.29235" stroke-miterlimit="10" stroke-linecap="round" stroke-linejoin="round"/>
    <path d="M64.9562 90.6447L68.2654 91.5321L64.0809 107.154L60.792 106.273" stroke="#00359C" stroke-width="2.29235" stroke-miterlimit="10" stroke-linecap="round" stroke-linejoin="round"/>
    <path d="M52.8983 104.158L21.4658 95.7364" stroke="#00359C" stroke-width="2.29235" stroke-miterlimit="10" stroke-linecap="round" stroke-linejoin="round"/>
    <path d="M57.0607 88.5303L25.6484 80.1147" stroke="#00359C" stroke-width="2.29235" stroke-miterlimit="10" stroke-linecap="round" stroke-linejoin="round"/>
    <path d="M13.6263 93.6367L9.40527 92.5067L13.5899 76.8845L17.8107 78.0145" stroke="#00359C" stroke-width="2.29235" stroke-miterlimit="10" stroke-linecap="round" stroke-linejoin="round"/>
    <path d="M79.4181 16.4062L78.2881 12.1853L93.9103 8.00081L95.0403 12.2218" stroke="#00359C" stroke-width="2.29235" stroke-miterlimit="10" stroke-linecap="round" stroke-linejoin="round"/>
    <path d="M107.677 59.3879L108.558 62.6769L92.9362 66.8613L92.0488 63.5522" stroke="#00359C" stroke-width="2.29235" stroke-miterlimit="10" stroke-linecap="round" stroke-linejoin="round"/>
    <path d="M89.9341 55.6562L81.5186 24.2439" stroke="#00359C" stroke-width="2.29235" stroke-miterlimit="10" stroke-linecap="round" stroke-linejoin="round"/>
    <path d="M105.562 51.4941L97.1406 20.0616" stroke="#00359C" stroke-width="2.29235" stroke-miterlimit="10" stroke-linecap="round" stroke-linejoin="round"/>
    <path d="M36.1883 46.2207L33.1035 43.1359L44.5391 31.7001L47.6239 34.7851" stroke="#00359C" stroke-width="2.29235" stroke-miterlimit="10" stroke-linecap="round" stroke-linejoin="round"/>
    <path d="M82.1348 69.2957L84.5627 71.7236L73.127 83.1592L70.6992 80.7314" stroke="#00359C" stroke-width="2.29235" stroke-miterlimit="10" stroke-linecap="round" stroke-linejoin="round"/>
    <path d="M64.9245 74.9561L41.9238 51.9554" stroke="#00359C" stroke-width="2.29235" stroke-miterlimit="10" stroke-linecap="round" stroke-linejoin="round"/>
    <path d="M76.36 63.5205L53.3594 40.5199" stroke="#00359C" stroke-width="2.29235" stroke-miterlimit="10" stroke-linecap="round" stroke-linejoin="round"/>
</svg>