<svg xmlns="http://www.w3.org/2000/svg" viewBox="0 0 120 120" fill="none">
    <path d="M89.0367 25.6614C22.683 25.6614 -9.53831 80.3745 5.33251 91.6955C17.6236 101.053 38.4395 82.5513 38.4395 82.5513H115.531V52.156C115.531 37.5236 103.669 25.6614 89.0367 25.6614Z" stroke="#00359C" stroke-width="2.8" stroke-miterlimit="10" stroke-linecap="round" stroke-linejoin="round"/>
    <path d="M38.4395 82.5508L46.5251 74.5455" stroke="#00359C" stroke-width="2.8" stroke-miterlimit="10" stroke-linecap="round" stroke-linejoin="round"/>
    <path d="M96.3991 51.6696C96.8336 51.2459 96.5938 50.5076 95.9931 50.4204L91.4149 49.7553C91.2973 49.7381 91.1857 49.6927 91.0897 49.6229C90.9936 49.5531 90.9159 49.461 90.8634 49.3545L88.8159 45.2058C88.5473 44.6616 87.771 44.6616 87.5024 45.2058L85.455 49.3545C85.4024 49.461 85.3247 49.5531 85.2287 49.6229C85.1326 49.6927 85.021 49.7381 84.9035 49.7553L80.325 50.4204C79.7245 50.5076 79.4845 51.2459 79.9193 51.6696L83.2322 54.8988C83.3172 54.9817 83.3808 55.084 83.4175 55.197C83.4542 55.3099 83.4629 55.4301 83.4429 55.5471L82.6607 60.1071C82.5581 60.7052 83.1862 61.1615 83.7234 60.8791L87.8184 58.7262C88.0317 58.6141 88.2867 58.6141 88.4999 58.7262L92.5949 60.8791C93.1324 61.1615 93.7602 60.7052 93.6576 60.1071L92.8755 55.5471C92.8554 55.4301 92.8641 55.3099 92.9008 55.197C92.9375 55.084 93.0011 54.9817 93.0862 54.8988L96.3991 51.6696Z" stroke="#00359C" stroke-width="2.8" stroke-miterlimit="10" stroke-linecap="round" stroke-linejoin="round"/>
    <path d="M77.1525 89.9053H116.175C116.723 89.9053 117.249 89.6876 117.636 89.3C118.024 88.9125 118.242 88.3869 118.242 87.8388V84.6183C118.242 84.0701 118.024 83.5445 117.636 83.1569C117.249 82.7693 116.723 82.5515 116.175 82.5515H38.4393C38.4393 82.5515 33.925 86.5629 27.8604 89.9053H68.9494" stroke="#00359C" stroke-width="2.8" stroke-miterlimit="10" stroke-linecap="round" stroke-linejoin="round"/>
    <path d="M104.172 49.2692C102.347 42.1264 95.8707 36.845 88.1595 36.845C79.0327 36.845 71.6338 44.244 71.6338 53.3708C71.6338 62.4978 79.0327 69.8965 88.1595 69.8965C95.8707 69.8965 102.347 64.6151 104.172 57.4723" stroke="#00359C" stroke-width="2.8" stroke-miterlimit="10" stroke-linecap="round" stroke-linejoin="round"/>
</svg>