<svg xmlns="http://www.w3.org/2000/svg" viewBox="0 0 160 160" fill="none"  stroke="#00359c">
        <path d="M3.38672 56.0346C16.4945 44.0232 45.4534 21.7578 80.0001 21.7578C114.663 21.7578 143.701 44.1736 156.745 56.1557" stroke-width="3" stroke-miterlimit="10" stroke-linecap="round" stroke-linejoin="round"/>
        <path d="M156.926 74.9186C156.926 74.9186 122.485 115.571 80.0003 115.571C37.5152 115.571 3.07422 74.9186 3.07422 74.9186C3.07422 74.9186 37.5152 34.2666 80.0003 34.2666C122.485 34.2666 156.926 74.9186 156.926 74.9186Z" stroke-width="3" stroke-miterlimit="10" stroke-linejoin="round"/>
        <path d="M55.6316 81.496L48.7295 79.0416V70.7949L55.6316 68.3404L58.1179 62.3383L54.973 55.7224L60.8044 49.891L67.4203 53.0359L73.4224 50.5495L75.8769 43.6475H84.1236L86.5781 50.5495L92.5802 53.0359L99.1961 49.891L105.028 55.7224L101.883 62.3383L104.369 68.3404L111.271 70.7949V79.0416L104.369 81.496L101.883 87.4981L105.028 94.1141L99.1961 99.9455L92.5802 96.8006L86.5781 99.2869L84.1236 106.189H75.8769L73.4224 99.2869L67.4203 96.8006L60.8044 99.9455L54.973 94.1141L58.1179 87.4981L55.6316 81.496Z" stroke-width="3" stroke-miterlimit="10" stroke-linejoin="round"/>
        <path d="M80.0004 85.8632C86.0451 85.8632 90.9452 80.963 90.9452 74.9184C90.9452 68.8738 86.0451 63.9736 80.0004 63.9736C73.9558 63.9736 69.0557 68.8738 69.0557 74.9184C69.0557 80.963 73.9558 85.8632 80.0004 85.8632Z" stroke-width="3" stroke-miterlimit="10" stroke-linejoin="round"/>
        <path d="M80.0004 124.951V140.586M63.4269 123.387L58.7363 138.71M47.7915 118.071L39.6611 130.892M96.5739 123.387L101.265 138.71M112.209 118.071L120.34 130.892" stroke-width="3" stroke-miterlimit="10" stroke-linejoin="round"/>
    </svg>