<svg xmlns="http://www.w3.org/2000/svg" viewBox="0 0 120 120" fill="none">
    <path d="M68.1319 41.3588C68.8915 41.2885 69.6607 41.2508 70.4391 41.2508C84.0897 41.2508 95.1555 52.3165 95.1555 65.9672C95.1555 79.6176 84.0897 90.6836 70.4391 90.6836C56.7886 90.6836 45.7227 79.6176 45.7227 65.9672C45.7227 60.6361 47.4104 55.6995 50.2808 51.6617" stroke="#00359C" stroke-width="2.8" stroke-miterlimit="22.926" stroke-linecap="round" stroke-linejoin="round"/>
    <path d="M70.4391 50.6255C78.915 50.6255 85.7805 57.4912 85.7805 65.9672C85.7805 74.4428 78.915 81.3086 70.4391 81.3086C61.9634 81.3086 55.0977 74.4428 55.0977 65.9672C55.0977 57.4912 61.9634 50.6255 70.4391 50.6255Z" stroke="#00359C" stroke-width="2.8" stroke-miterlimit="22.926" stroke-linecap="round" stroke-linejoin="round"/>
    <path d="M44.3829 88.1397L48.2664 92.0235C49.3347 93.0915 49.3347 94.8393 48.2664 95.9073L33.4123 110.761C32.3445 111.83 30.5967 111.83 29.5287 110.761L25.6449 106.878C24.5768 105.81 24.5766 104.062 25.6449 102.994L40.499 88.1397C41.5669 87.0714 43.3146 87.0716 44.3829 88.1397Z" stroke="#00359C" stroke-width="2.8" stroke-miterlimit="22.926" stroke-linecap="round" stroke-linejoin="round"/>
    <path d="M46.3242 90.0811L52.9615 83.4438" stroke="#00359C" stroke-width="2.8" stroke-miterlimit="22.926" stroke-linecap="round" stroke-linejoin="round"/>
    <path d="M91.8752 78.75H114.352C116.177 78.75 117.656 77.2791 117.656 75.4643V11.7234C117.656 9.90888 116.177 8.43771 114.352 8.43771H76.4646C74.6803 8.43771 72.7835 9.1284 71.6548 9.90934L45.5141 26.403C43.4237 27.7216 40.5034 28.2491 38.0289 28.2491H5.64796C3.82313 28.2491 2.34375 29.7203 2.34375 31.5348V75.4643C2.34375 77.2791 3.82313 78.75 5.64796 78.75H49.0763" stroke="#00359C" stroke-width="2.8" stroke-miterlimit="2.613" stroke-linecap="round" stroke-linejoin="round"/>
    <path d="M115.312 18.5157H79.5115C77.7274 18.5157 75.8304 19.2064 74.7017 19.9874L48.5612 36.4807C46.4708 37.7996 43.5505 38.3271 41.0758 38.3271H4.6875" stroke="#00359C" stroke-width="2.8" stroke-miterlimit="2.613" stroke-linecap="round" stroke-linejoin="round"/>
    <path d="M45.8589 62.4546C44.2942 62.8017 42.6006 62.9521 41.0758 62.9521H4.6875M115.312 48.0694H87.7495" stroke="#00359C" stroke-width="2.8" stroke-miterlimit="2.613" stroke-linecap="round" stroke-linejoin="round"/>
    <path d="M102.414 29.6406H102.412" stroke="#00359C" stroke-width="2.8" stroke-miterlimit="22.926" stroke-linecap="round" stroke-linejoin="round"/>
    <path d="M83.2411 31.4912H83.2393" stroke="#00359C" stroke-width="2.8" stroke-miterlimit="22.926" stroke-linecap="round" stroke-linejoin="round"/>
    <path d="M33.2712 47.8047H33.2695" stroke="#00359C" stroke-width="2.8" stroke-miterlimit="22.926" stroke-linecap="round" stroke-linejoin="round"/>
    <path d="M14.9909 53.3125H14.9893" stroke="#00359C" stroke-width="2.8" stroke-miterlimit="22.926" stroke-linecap="round" stroke-linejoin="round"/>
    <path d="M58.0827 44.5606L58.0811 44.5615" stroke="#00359C" stroke-width="2.8" stroke-miterlimit="2.613" stroke-linecap="round" stroke-linejoin="round"/>
</svg>