<svg xmlns="http://www.w3.org/2000/svg" viewBox="0 0 120 120">
    <path d="M12.0913 14.2144L84.7314 1.8124C87.0262 1.42052 89.1212 3.18841 89.1212 5.51646V61.879" stroke="#00359C" stroke-width="2.8" stroke-miterlimit="10" stroke-linecap="round" stroke-linejoin="round"/>
    <path d="M19.1404 18.8223L18.033 17.272C17.3574 16.3262 16.4659 15.5554 15.4324 15.0236C14.399 14.4918 13.2536 14.2143 12.0913 14.2143C8.97836 14.2143 6.45508 16.7378 6.45508 19.8505V103.212C6.45508 105.287 8.13742 106.969 10.2126 106.969H64.697M86.5417 2.125L27.9986 26.2309C27.2146 26.5538 26.3445 26.6019 25.5296 26.3677C24.7148 26.1334 24.0031 25.6304 23.5103 24.9405M42.1518 48.7272H74.091M21.4851 82.5454H55.3033M21.4851 91.9391H57.182M42.1518 39.3334H74.091M42.1518 71.2727H60.9395M42.1518 61.8787H70.3335M102.273 69.3939H75.9698L64.697 80.6666C67.6769 109.159 89.1212 118.242 89.1212 118.242C89.1212 118.242 110.566 109.159 113.545 80.6664L102.273 69.3939Z" stroke="#00359C" stroke-width="2.8" stroke-miterlimit="10" stroke-linecap="round" stroke-linejoin="round"/>
    <path d="M89.121 84.4238V108.848M72.6524 83.3384C75.3459 98.72 84.3627 106.521 89.1257 109.651C93.8613 106.538 102.894 98.7375 105.59 83.3384L99.16 76.9086H79.0823L72.6524 83.3384ZM32.7576 50.6056H23.3636C22.8653 50.6056 22.3875 50.4076 22.0351 50.0553C21.6828 49.703 21.4849 49.2251 21.4849 48.7268V39.3329C21.4849 38.8346 21.6828 38.3567 22.0351 38.0044C22.3875 37.652 22.8653 37.4541 23.3636 37.4541H32.7576C33.2559 37.4541 33.7337 37.652 34.0861 38.0044C34.4384 38.3567 34.6363 38.8346 34.6363 39.3329V48.7268C34.6363 49.2251 34.4384 49.703 34.0861 50.0553C33.7337 50.4076 33.2559 50.6056 32.7576 50.6056ZM32.7576 73.1511H23.3636C23.1169 73.1511 22.8726 73.1025 22.6446 73.008C22.4167 72.9136 22.2096 72.7752 22.0351 72.6008C21.8607 72.4263 21.7223 72.2192 21.6279 71.9913C21.5335 71.7633 21.4849 71.519 21.4849 71.2723V61.8783C21.4849 61.38 21.6828 60.9022 22.0351 60.5498C22.3875 60.1975 22.8653 59.9996 23.3636 59.9996H32.7576C33.2559 59.9996 33.7337 60.1975 34.0861 60.5498C34.4384 60.9022 34.6363 61.38 34.6363 61.8783V71.2723C34.6363 71.7706 34.4384 72.2484 34.0861 72.6008C33.7337 72.9531 33.2559 73.1511 32.7576 73.1511Z" stroke="#00359C" stroke-width="2.8" stroke-miterlimit="10" stroke-linecap="round" stroke-linejoin="round"/>
</svg>