<svg xmlns="http://www.w3.org/2000/svg" viewBox="0 0 120 120" fill="none">
    <path d="M26.752 35.3906C31.1105 31.6352 36.1116 28.6052 41.5679 26.4876M9.03803 81.2945V74.0143C9.03803 61.3202 13.6792 49.7103 21.3571 40.7886M78.9489 26.6915C97.711 34.211 110.962 52.5651 110.962 74.014V81.2943M75.7386 54.6001L78.3854 28.766C78.6252 25.8869 76.7893 23.2478 74.0113 22.4551C69.5597 21.185 64.8596 20.5049 60.0002 20.5049C55.1624 20.5049 50.4819 21.179 46.0478 22.4385C43.2669 23.2283 41.4287 25.8698 41.6687 28.7507L44.3167 54.6004M96.8789 99.495H4.85463C3.14439 99.495 1.75781 98.1085 1.75781 96.3982V91.6713C1.75781 89.961 3.14439 88.5745 4.85463 88.5745M115.145 88.5747C116.856 88.5747 118.242 89.9613 118.242 91.6715V96.3984C118.242 98.1087 116.856 99.4953 115.145 99.4953H104.54" stroke="#00359C" stroke-width="2.8" stroke-miterlimit="10" stroke-linecap="round" stroke-linejoin="round"/>
    <path d="M47.0969 88.5751H5.39746V82.6848C5.39746 82.3162 5.54389 81.9626 5.80454 81.702C6.06519 81.4414 6.4187 81.2949 6.78732 81.2949H41.0638M78.9487 81.2949H113.755C114.124 81.2949 114.477 81.4414 114.738 81.702C114.998 81.9626 115.145 82.3162 115.145 82.6848V88.5751H72.0985" stroke="#00359C" stroke-width="2.8" stroke-miterlimit="10" stroke-linecap="round" stroke-linejoin="round"/>
    <path d="M81.8575 70.5638C81.7516 82.5454 72.006 92.2257 59.9995 92.2257C47.9273 92.2257 38.1406 82.439 38.1406 70.3667C38.1406 58.2944 47.9273 48.5078 59.9995 48.5078C69.4506 48.5078 77.5009 54.506 80.5511 62.903" stroke="#00359C" stroke-width="2.8" stroke-miterlimit="10" stroke-linecap="round" stroke-linejoin="round"/>
    <path d="M60 84.9277C68.0416 84.9277 74.5605 78.4088 74.5605 70.3672C74.5605 62.3256 68.0416 55.8066 60 55.8066C51.9584 55.8066 45.4395 62.3256 45.4395 70.3672C45.4395 78.4088 51.9584 84.9277 60 84.9277Z" stroke="#00359C" stroke-width="2.8" stroke-miterlimit="10" stroke-linecap="round" stroke-linejoin="round"/>
    <path d="M52.7126 70.3673C52.7126 66.3426 55.9752 63.0801 59.9999 63.0801M16.3184 81.2947V74.0145H27.2387V81.2947M92.7611 81.2947V74.0145H103.682V81.2947" stroke="#00359C" stroke-width="2.8" stroke-miterlimit="10" stroke-linecap="round" stroke-linejoin="round"/>
</svg>