<svg xmlns="http://www.w3.org/2000/svg" viewBox="0 0 160 160" fill="none" stroke="#00359c">
    <path d="M69.4941 83.9718L78.0471 92.5251L90.5055 80.0664" stroke-width="3" stroke-miterlimit="10" stroke-linecap="round" stroke-linejoin="round"/>
    <path d="M80.0001 113.076C94.7544 113.076 106.715 101.116 106.715 86.3614C106.715 71.6072 94.7544 59.6465 80.0001 59.6465C65.2458 59.6465 53.2852 71.6072 53.2852 86.3614C53.2852 101.116 65.2458 113.076 80.0001 113.076Z" stroke-width="3" stroke-miterlimit="10" stroke-linejoin="round"/>
    <path d="M153.142 66.253C154.104 65.2006 154.426 63.7124 153.985 62.3563V62.3563C153.545 61.0001 152.409 59.9854 151.012 59.6993L113.2 51.9577C108.675 51.0315 104.772 48.1955 102.493 44.1788L83.4453 10.609C82.7416 9.36884 81.4258 8.60254 79.9999 8.60254V8.60254C78.5741 8.60254 77.2582 9.36884 76.5545 10.609L57.5069 44.1788C55.2279 48.1955 51.3245 51.0315 46.8002 51.9577L8.98761 59.6993C7.59063 59.9854 6.45516 61.0001 6.01456 62.3563V62.3563C5.57399 63.7124 5.89618 65.2006 6.85819 66.2531L32.899 94.7419C36.0148 98.1506 37.5058 102.739 36.9886 107.329L32.6666 145.683C32.5069 147.1 33.121 148.493 34.2745 149.331V149.331C35.4281 150.169 36.943 150.323 38.2412 149.733L73.3828 133.771C77.5875 131.861 82.4123 131.861 86.617 133.771L121.759 149.733C123.057 150.323 124.572 150.169 125.725 149.331V149.331C126.879 148.493 127.493 147.1 127.333 145.683L123.011 107.329C122.494 102.739 123.985 98.1506 127.101 94.7419L153.142 66.253Z" stroke-width="3" stroke-miterlimit="10" stroke-linejoin="round"/>
</svg>