<svg xmlns="http://www.w3.org/2000/svg" viewBox="0 0 120 120" fill="none">
    <path d="M60.9437 99.8447C60.9437 99.3242 60.5205 98.901 60 98.901C59.4794 98.901 59.0562 99.3242 59.0562 99.8447C59.0562 100.365 59.4794 100.788 60 100.788C60.5205 100.788 60.9437 100.365 60.9437 99.8447Z" fill="#00359C" stroke="#00359C" stroke-width="2.8"/>
    <path d="M50.6249 38.9074H106.875L111.562 90.4697H8.4375L13.125 38.9074H27.1874" stroke="#00359C" stroke-width="2.8" stroke-miterlimit="10" stroke-linecap="round" stroke-linejoin="round"/>
    <path d="M78.75 29.5322H69.375V10.7823H97.4999V29.5322H78.75Z" stroke="#00359C" stroke-width="2.8" stroke-miterlimit="10" stroke-linecap="round" stroke-linejoin="round"/>
    <path d="M88.125 29.5323V38.9072" stroke="#00359C" stroke-width="2.8" stroke-miterlimit="10" stroke-linecap="round" stroke-linejoin="round"/>
    <path d="M78.75 38.9072V29.5323" stroke="#00359C" stroke-width="2.8" stroke-miterlimit="10" stroke-linecap="round" stroke-linejoin="round"/>
    <path d="M22.5 62.3447H55.3124" stroke="#00359C" stroke-width="2.8" stroke-miterlimit="10" stroke-linecap="round" stroke-linejoin="round"/>
    <path d="M97.4999 62.3447H64.6875V48.2823H97.4999V62.3447Z" stroke="#00359C" stroke-width="2.8" stroke-miterlimit="10" stroke-linecap="round" stroke-linejoin="round"/>
    <path d="M22.5 81.0947H27.1875" stroke="#00359C" stroke-width="2.8" stroke-miterlimit="10" stroke-linecap="round" stroke-linejoin="round"/>
    <path d="M36.5625 81.0947H41.25" stroke="#00359C" stroke-width="2.8" stroke-miterlimit="10" stroke-linecap="round" stroke-linejoin="round"/>
    <path d="M50.625 81.0947H55.3125" stroke="#00359C" stroke-width="2.8" stroke-miterlimit="10" stroke-linecap="round" stroke-linejoin="round"/>
    <path d="M64.6875 71.7197H69.375" stroke="#00359C" stroke-width="2.8" stroke-miterlimit="10" stroke-linecap="round" stroke-linejoin="round"/>
    <path d="M78.75 71.7197H83.4375" stroke="#00359C" stroke-width="2.8" stroke-miterlimit="10" stroke-linecap="round" stroke-linejoin="round"/>
    <path d="M92.8125 71.7197H97.5" stroke="#00359C" stroke-width="2.8" stroke-miterlimit="10" stroke-linecap="round" stroke-linejoin="round"/>
    <path d="M22.5 71.7197H27.1875" stroke="#00359C" stroke-width="2.8" stroke-miterlimit="10" stroke-linecap="round" stroke-linejoin="round"/>
    <path d="M36.5625 71.7197H41.25" stroke="#00359C" stroke-width="2.8" stroke-miterlimit="10" stroke-linecap="round" stroke-linejoin="round"/>
    <path d="M50.625 71.7197H55.3125" stroke="#00359C" stroke-width="2.8" stroke-miterlimit="10" stroke-linecap="round" stroke-linejoin="round"/>
    <path d="M64.6875 81.0947H69.375" stroke="#00359C" stroke-width="2.8" stroke-miterlimit="10" stroke-linecap="round" stroke-linejoin="round"/>
    <path d="M78.75 81.0947H83.4375" stroke="#00359C" stroke-width="2.8" stroke-miterlimit="10" stroke-linecap="round" stroke-linejoin="round"/>
    <path d="M92.8125 81.0947H97.5" stroke="#00359C" stroke-width="2.8" stroke-miterlimit="10" stroke-linecap="round" stroke-linejoin="round"/>
    <path d="M50.6249 62.3447V24.8448L44.7656 27.1886L38.9062 24.8448L33.0469 27.1886L27.1875 24.8448V62.3447" stroke="#00359C" stroke-width="2.8" stroke-miterlimit="10" stroke-linecap="round" stroke-linejoin="round"/>
    <path d="M60 110.163C60.5211 110.163 60.9437 109.741 60.9437 109.22C60.9437 108.699 60.521 108.276 60 108.276C59.4788 108.276 59.0562 108.699 59.0562 109.22C59.0562 109.741 59.4787 110.163 60 110.163Z" fill="#00359C" stroke="#00359C" stroke-width="2.8"/>
    <path d="M111.562 90.4698H117.656V109.22H70.5469" stroke="#00359C" stroke-width="2.8" stroke-miterlimit="10" stroke-linecap="round" stroke-linejoin="round"/>
    <path d="M49.4532 109.22H2.34375V90.4698H8.43748" stroke="#00359C" stroke-width="2.8" stroke-miterlimit="10" stroke-linecap="round" stroke-linejoin="round"/>
</svg>