<svg width="275" height="114" viewBox="0 0 275 114" fill="none" xmlns="http://www.w3.org/2000/svg">
<path fill-rule="evenodd" clip-rule="evenodd" d="M133.161 64.5825L137.785 71.2964L142.409 64.5825H275V88.5723H0.570129V64.5825H133.161Z" fill="white"/>
<path d="M137.785 68.1031L125.226 0.478979L150.345 0.478981L137.785 68.1031Z" fill="white"/>
<path d="M99.1166 7.26819L101.827 13.5608L108.649 14.1935L103.501 18.7153L105.008 25.3989L99.1166 21.9009L93.2256 25.3989L94.732 18.7153L89.5848 14.1935L96.4068 13.5608L99.1166 7.26819Z" fill="white"/>
<path d="M176.453 7.26819L179.163 13.5608L185.985 14.1935L180.838 18.7153L182.344 25.3989L176.453 21.9009L170.562 25.3989L172.068 18.7153L166.921 14.1935L173.743 13.5608L176.453 7.26819Z" fill="white"/>
<path d="M61.877 21.3306L64.5868 27.6232L71.4088 28.2559L66.2616 32.7776L67.768 39.4613L61.877 35.9633L55.9859 39.4613L57.4923 32.7776L52.3451 28.2559L59.1671 27.6232L61.877 21.3306Z" fill="white"/>
<path d="M213.693 21.3306L216.402 27.6232L223.224 28.2559L218.077 32.7776L219.584 39.4613L213.693 35.9633L207.802 39.4613L209.308 32.7776L204.161 28.2559L210.983 27.6232L213.693 21.3306Z" fill="white"/>
<path d="M103.496 27.3141L121.17 46.8296" stroke="white" stroke-width="1.14583"/>
<path d="M114.727 52.1683L76.0643 35.599" stroke="white" stroke-width="1.14583"/>
<path d="M108.099 57.3234L37.9536 52.537" stroke="white" stroke-width="1.14583"/>
<path d="M172.074 27.3141L154.399 46.8296" stroke="white" stroke-width="1.14583"/>
<path d="M160.843 52.1683L199.505 35.599" stroke="white" stroke-width="1.14583"/>
<path d="M167.471 57.3234L237.616 52.537" stroke="white" stroke-width="1.14583"/>
<path d="M20.6201 40.8102L23.3299 47.1028L30.1519 47.7355L25.0047 52.2572L26.5111 58.9409L20.6201 55.4429L14.729 58.9409L16.2354 52.2572L11.0882 47.7355L17.9102 47.1028L20.6201 40.8102Z" fill="white"/>
<path d="M254.95 40.8102L257.66 47.1028L264.482 47.7355L259.335 52.2572L260.841 58.9409L254.95 55.4429L249.059 58.9409L250.566 52.2572L245.418 47.7355L252.24 47.1028L254.95 40.8102Z" fill="white"/>
<path d="M243.215 112.42H230.09V88.0941C230.09 84.6655 232.041 81.7683 235.943 79.4025C239.904 77.0025 245.136 75.8025 251.639 75.8025C257.965 75.8025 263.138 76.9854 267.158 79.3511C271.179 81.7168 273.189 84.6312 273.189 88.0941C273.189 91.557 271.208 94.4713 267.247 96.837C263.345 99.2028 258.142 100.386 251.639 100.386H246.85V93.1856C248.92 93.1856 250.664 93.1341 252.083 93.0313C253.502 92.8941 254.861 92.6713 256.162 92.3627C257.463 92.0198 258.438 91.5055 259.088 90.8198C259.739 90.0998 260.064 89.2084 260.064 88.1455C260.064 86.534 259.295 85.2826 257.758 84.3912C256.28 83.4654 254.241 83.0026 251.639 83.0026C249.038 83.0026 246.969 83.4654 245.432 84.3912C243.954 85.2826 243.215 86.534 243.215 88.1455V112.42Z" fill="#00359C" stroke="white" stroke-width="2.29167"/>
<path d="M190.155 112.42H176.32V88.9684C176.32 87.3226 176.734 85.7455 177.562 84.2369C178.39 82.7283 179.631 81.3397 181.286 80.0711C183.001 78.7682 185.336 77.7397 188.292 76.9854C191.307 76.1968 194.736 75.8025 198.579 75.8025C202.422 75.8025 205.822 76.1968 208.778 76.9854C211.793 77.7397 214.128 78.7682 215.783 80.0711C217.498 81.3397 218.769 82.7283 219.597 84.2369C220.483 85.7455 220.927 87.3226 220.927 88.9684V112.42H207.093V99.4599H193.613V92.4655H207.093V87.6312C207.093 84.4083 204.255 82.7969 198.579 82.7969C192.963 82.7969 190.155 84.4083 190.155 87.6312V112.42Z" fill="#00359C" stroke="white" stroke-width="2.29167"/>
<path d="M140.168 112.419H127.043V76.4187H140.168V89.8931C143.124 89.8931 145.134 89.6874 146.198 89.276C147.263 88.8303 148.238 87.9903 149.125 86.756L156.751 76.4187H171.118L163.757 85.8817C163.048 86.8417 162.397 87.6303 161.806 88.2474C161.274 88.8303 160.446 89.4646 159.323 90.1503C158.2 90.836 156.988 91.316 155.687 91.5903V91.6932C159.471 91.8646 162.545 92.6018 164.91 93.9046C167.334 95.1732 168.546 96.8189 168.546 98.8418V112.419H155.421V100.385C155.421 99.1504 154.948 98.259 154.002 97.7104C153.116 97.1618 151.697 96.8875 149.746 96.8875H140.168V112.419Z" fill="#00359C" stroke="white" stroke-width="2.29167"/>
<path d="M86.664 112.42H72.8298V88.9684C72.8298 87.3226 73.2437 85.7455 74.0713 84.2369C74.899 82.7283 76.1406 81.3397 77.7959 80.0711C79.5104 78.7682 81.8457 77.7397 84.8017 76.9854C87.8169 76.1968 91.2459 75.8025 95.0888 75.8025C98.9316 75.8025 102.331 76.1968 105.287 76.9854C108.302 77.7397 110.638 78.7682 112.293 80.0711C114.007 81.3397 115.278 82.7283 116.106 84.2369C116.993 85.7455 117.436 87.3226 117.436 88.9684V112.42H103.602V99.4599H90.1226V92.4655H103.602V87.6312C103.602 84.4083 100.764 82.7969 95.0888 82.7969C89.4723 82.7969 86.664 84.4083 86.664 87.6312V112.42Z" fill="#00359C" stroke="white" stroke-width="2.29167"/>
<path fill-rule="evenodd" clip-rule="evenodd" d="M24.9512 112.426H11.117V112.42H2.38264V105.752H2.38116V104.397H11.117V88.9742C11.117 87.3285 11.5308 85.7513 12.3585 84.2427C13.1862 82.7341 14.4277 81.3456 16.0831 80.077C17.7976 78.7741 20.1328 77.7455 23.0889 76.9912C26.104 76.2026 29.533 75.8083 33.3758 75.8083C37.2186 75.8083 40.618 76.2026 43.574 76.9912C46.5892 77.7455 48.9244 78.7741 50.5798 80.077C52.2943 81.3456 53.5654 82.7341 54.3931 84.2427C55.2799 85.7513 55.7233 87.3285 55.7233 88.9742V104.397H64.4591V105.323H64.4594V112.42H55.7233V112.426H41.8891V112.42H24.9512V112.426ZM24.9512 104.397H25.5401H41.4464H41.8891V99.4658H41.885V92.4714H41.8891V87.6371C41.8891 84.4142 39.0513 82.8027 33.3758 82.8027C27.7594 82.8027 24.9512 84.4142 24.9512 87.6371V104.397Z" fill="#00359C" stroke="white" stroke-width="2.29167"/>
</svg>
